<svg xmlns="http://www.w3.org/2000/svg" xmlns:xlink="http://www.w3.org/1999/xlink" viewBox="0 0 696.9 476"><style><![CDATA[.U{opacity:.5}.V{fill:#51697a}.W{fill:#982300}.X{fill:#0d1319}.Y{fill:#fff}.Z{fill:#cf3000}.a{fill:#dae6ee}.b{fill:#6d8494}.c{fill:#ee4a00}.d{fill:#fcbb91}.e{fill:#2a3945}.f{fill:#b4ccdc}.g{fill:#ff690f}.h{fill:#bacedc}.i{fill:#4e5b64}.j{fill:#b8ddfd}.k{fill:#1d2d37}.l{fill:#344755}.m{fill:#eef6fe}.n{fill:#ffeadc}]]></style><path d="M4.2 395.5l138.3 80c5.1 2.9 11.4 2.9 16.5 0l211-120.9c2.3-1.3 3-4.2 1.7-6.5a4.62 4.62 0 0 0-1.7-1.7l-143.6-82.5L4.2 391.8c-1 .6-1.4 1.9-.9 2.9a2.36 2.36 0 0 0 .9.8z" class="a"/><path d="M12.3 391.5l130.8 76.3c5.1 2.9 11.4 2.9 16.5 0l208.9-119c.9-.5 1.2-1.7.7-2.7-.2-.3-.4-.5-.7-.7l-140.3-81.2L12.3 387.8c-1 .6-1.4 1.9-.8 2.9.2.3.5.6.8.8z" fill="#92aabb"/><path d="M220.2 245L6.5 374.8 3 370.6c-2.1-3.2-3-5.4-3-7.8V198.3c0-2.5 1.3-4.8 3.3-6.2L216.4 69c1.8-1.1 4.1-.7 7 .3l4.7 2.3-4.6 167.1c0 2.5-1.2 4.8-3.3 6.3z" fill="#e6eaee"/><path d="M226.1 250L9.2 375.2c-1.8 1.1-3.3-.1-3.3-2.5V203.3c0-2.5 1.2-4.8 3.3-6.2l217-125.3c1.8-1.1 3.3.1 3.3 2.5v169.5c-.1 2.4-1.3 4.8-3.4 6.2z" class="f"/><use xlink:href="#d" class="k"/><linearGradient id="A" gradientUnits="userSpaceOnUse" x1="21.157" y1="188.397" x2="214.131" y2="258.628"><stop offset=".05" stop-color="#0c4266" stop-opacity="0"/><stop offset=".68" stop-color="#0c4266"/><stop offset=".92" stop-color="#1d2d37" stop-opacity=".7"/></linearGradient><use xlink:href="#d" fill="url(#A)" class="U"/><path d="M213.8 105.8l.4 140-191 110.3-.4-140z" fill="#f3fbff"/><path d="M213.8 105.6v10.3l-191 110.2v-10.2z" class="a"/><path d="M28.8 216.4c.8-.5 1.5-.1 1.5.9-.1 1.1-.6 2.1-1.5 2.6-.8.5-1.5.1-1.5-.9s.6-2 1.5-2.6z" class="Z"/><path d="M35.5 212.6c.8-.5 1.5-.1 1.5.9 0 1.1-.6 2.1-1.5 2.6-.8.5-1.5.1-1.5-.9.1-1 .6-2 1.5-2.6z" fill="#faa743"/><path d="M42.8 208.9c.8-.5 1.5-.1 1.5.9-.1 1.1-.6 2.1-1.5 2.6-.8.5-1.5.1-1.5-.9 0-1.1.6-2.1 1.5-2.6z" fill="#1ecab2"/><path d="M173.2 131.7v5.4L58.6 203.2l-.1-5.3z" fill="#f3fbff"/><path d="M199.5 118.7v-.6l10-5.9v.6zm0 1.3v-.7l10-5.9v.7zm0 1.2v-.7l10-5.8v.6z" class="b"/><g class="g"><path d="M202.1 133.4c1.1.3 1.6 1.4 1.3 3.1l-1.5.3c.3-1.1.4-2.2.2-3.4z"/><path d="M201 133.5c.1 0 .3-.1.4-.1l.2.1c.3.4.3 1.6 0 3.4l-1.1.2-1.2 4.3 3.1-1.8c.6-.4 1.1-.1 1.1.6l-8.8 5.1c0-.8.4-1.4 1.1-1.9l2.9-1.6 1.3-4.6-.9.1c.3-1.4 1-2.7 1.9-3.8zm-.9.4l.1-.1c-.7 1.1-1.3 2.3-1.7 3.6l-1.4.3c.6-1.6 1.6-2.9 3-3.8zM185.4 145v.2c-.1.3-.3.6-.6.8l-.6.4c0-.4.3-.8.6-1.1l.6-.3zm-8.1 4.7c.2-.1.4-.1.5.1.1.1.1.2.1.3l-.6.4c-.2.1-.4.1-.5-.1-.1-.1-.1-.2-.1-.3l.6-.4zm6.8-3.2c.3.3.8.4.8 1.1v2.7l-1.2.7v-.8l-5.1 3v.8l-1.2.7V152c0-.7.3-1.4.7-1.9l.2-1.2c.2-.9.7-1.8 1.4-2.3l2.7-1.6a.95.95 0 0 1 1.3.2c.1.1.1.3.2.4l.2.9zm-5.2 2.1l-.2 1 4.8-2.8-.2-.7c-.1-.5-.5-.7-.8-.5l-2.7 1.6c-.5.4-.8.9-.9 1.4m3.2 1.7c.1-.1.2-.2.2-.4 0-.1-.1-.2-.2-.1L180 151c-.1.1-.2.2-.2.4 0 .1.1.2.2.1l2.1-1.2m1.5-2c.4-.2.6-.6.6-1.1l-.6.4c-.4.2-.6.6-.6 1.1l.6-.4m-5 2.9l.6-.4c0-.4-.3-.6-.6-.4l-.6.4c0 .4.2.6.6.4m-11.9 2.8v2.5l-.7.4v-1.3l-1.4.8c-.6.4-1 1.1-1.1 1.9l-.7.4c0-.7-.5-1-1.1-.6l-1.5.8v1.3l-.7.4v-2.5l7.2-4.1z"/><path d="M166.4 157.1c.6-.4 1.1-.1 1.1.6v2.5l-.7.4v-1.3l-7.3 4.3v1.3l-.7.4v-2.5c0-.8.4-1.5 1.1-1.9l6.5-3.8zm-16.9 5.6c.1.1-.1 1.3-.5 1.9a51.89 51.89 0 0 1-1.3 2.3v4.4c0 .6-.1 1.1-.4 1.6l-.3.5-.6-2.8-.6-.4c-.1.1-.3.4-.4.7-.3.5-.6.9-.9 1.3l-.1.1v1.1c0 .4-.1.7-.3 1.1v.1l-.6-1.2-1.4.1.1-.1c.2-.3.4-.6.8-.8l.9-.5c.2-.6.5-1.1.8-1.6.2-.3.3-.6.4-.6l-.6-.4-2.7.8.2-.4v-.1c.3-.5.7-.8 1.2-1.1l3.8-2.2 1.3-2.3c.3-.5.8-1 1.2-1.3-.1-.1-.1-.1 0-.2zm-1.1 4.5l.2.1c.2.1.2.4 0 .7l-.6 1v-1.2l.4-.6zm-2.2-1.2l-.4.6-1.1.6.6-1.1c.1-.1.1-.2.3-.3h.3l.3.2zm-93.3 55.9l10-5.8v11.5l-10 5.8v-11.5zm5.6 2.9l1.6-4.1-1.4.8-.8 2.2-.8-1.3-1.4.8 1.6 2.3v2.5l1.2-.7v-2.5m9.9-7.3l.6 1.8-1.2.7zm-26.1 10.6l10-5.8v11.5l-9.9 5.8-.1-11.5zm6.1 5.1l1.3-.8-1.7-4.8-1.5.9-1.6 6.7 1.3-.8.2-1 1.8-1.1.2.9m-1.1-3.5l.6 1.8-1.2.7z"/><path d="M74 209.8l10-5.8v11.5l-10 5.8v-11.5zm6.9 4.6l-1.4-2.1 1.4-3.7-1.3.8-1.3 3.4v-2.6l-1.2.7v5.8l1.2-.7v-2.7l1.3 1.9 1.3-.8m-49.2 19.8l10-5.8v11.5l-10 5.8v-11.5zm7 4.6l-1.4-2.1 1.4-3.7-1.3.8-1.3 3.4v-2.7l-1.2.7v5.8l1.2-.7v-2.7l1.3 1.9 1.3-.7"/><path d="M63.4 215.9l10-5.8v11.5l-10 5.8v-11.5zm6.1 5.1l1.3-.8-1.7-4.8-1.5.9L66 223l1.3-.8.2-1 1.8-1 .2.8"/></g><path d="M364.8 341.9L156.2 462.4c-4.1 2.4-11.3 2.1-16-.7L10.7 387c-1.5-.9-1.6-1.6-2-3.8l-.9-5.9 219.8-120.4c1.6-.7 3.5-.6 5 .2l135 73.7s-.1 3.2 0 4.3c.1 3.4.2 5.1-2.8 6.8z" class="f"/><use xlink:href="#e" class="a"/><linearGradient id="B" gradientUnits="userSpaceOnUse" x1="7.886" y1="353.003" x2="367.618" y2="353.003"><stop offset=".6" stop-color="#f1f4f7" stop-opacity="0"/><stop offset=".8" stop-color="#f1f4f7"/><stop offset=".84" stop-color="#f1f4f7" stop-opacity=".8"/><stop offset=".92" stop-color="#f1f4f7" stop-opacity=".37"/><stop offset=".97" stop-color="#f1f4f7" stop-opacity=".1"/><stop offset="1" stop-color="#f1f4f7" stop-opacity="0"/></linearGradient><use xlink:href="#e" fill="url(#B)"/><g fill="#90b0c9"><path d="M43.3 370l-10.4 6c-.4.3-.6.8-.3 1.3.1.1.2.3.3.3l5.3 3.1c.3.2.6.2.9 0l10.4-6c.4-.3.6-.8.3-1.3-.1-.1-.2-.3-.3-.3l-5.3-3.1c-.2-.2-.6-.2-.9 0zm14.3-8.2l-10.4 6c-.4.3-.6.8-.3 1.3.1.1.2.3.3.3l5.3 3.1c.3.2.6.2.9 0l10.4-6c.4-.3.6-.8.3-1.3-.1-.1-.2-.3-.3-.3l-5.3-3.1c-.3-.1-.6-.1-.9 0z"/><use xlink:href="#f"/><path d="M86.1 345.4l-10.4 6c-.4.3-.6.8-.3 1.2l.3.3 5.4 3.1c.3.2.6.2.9 0l10.4-6c.4-.3.6-.8.3-1.3l-.3-.3-5.5-3.1c-.2-.1-.5-.1-.8.1zm14.2-8.3l-10.4 6c-.4.3-.6.8-.3 1.3.1.1.2.3.3.3l5.3 3.1c.3.2.6.2.9 0l10.4-6c.4-.2.6-.8.3-1.2-.1-.1-.2-.3-.3-.3l-5.3-3.1c-.2-.2-.6-.2-.9-.1z"/><use xlink:href="#g"/><path d="M128.8 320.7l-10 5.8c-.6.3-.8 1-.5 1.5.1.2.3.3.5.5l4.9 2.9c.3.2.8.2 1.1 0l10-5.8c.6-.3.8-1 .5-1.5-.1-.2-.3-.4-.5-.5l-4.9-2.9c-.4-.2-.8-.2-1.1 0zm14.3-8.3l-10.4 6c-.4.2-.6.8-.3 1.2.1.1.2.3.3.3l5.4 3.1c.3.2.6.2.9 0l10.4-6c.4-.2.6-.8.3-1.2-.1-.1-.2-.3-.3-.3l-5.3-3.1c-.3-.1-.7-.1-1 0zm14.3-8.2l-10.4 6c-.4.3-.6.8-.3 1.2l.3.3 5.4 3.1c.3.2.6.2.9 0l10.4-6c.4-.3.6-.8.3-1.2l-.3-.3-5.4-3.1c-.3-.2-.6-.2-.9 0zm14.1-8.2l-10.2 5.9c-.5.3-.6 1-.3 1.5l.3.3 5.1 3c.3.2.7.2 1.1 0l10.2-5.9c.5-.3.6-1 .3-1.5l-.3-.3-5.1-3c-.3-.2-.8-.2-1.1 0zm14.4-8.2l-10.4 6c-.5.3-.6.8-.3 1.3.1.1.2.3.3.3l5.3 3.1c.3.2.7.2.9 0l10.4-6c.5-.3.6-.8.3-1.3-.1-.1-.2-.3-.3-.3l-5.3-3.1c-.3-.2-.6-.2-.9 0z"/><use xlink:href="#h"/><path d="M214.3 271.3l-10.1 5.8c-.5.3-.7.9-.5 1.4.1.2.3.4.5.5l5 2.9c.3.2.7.2 1.1 0l10.1-5.8c.5-.3.7-.9.4-1.4-.1-.2-.3-.3-.4-.4l-5-2.9c-.4-.3-.8-.3-1.1-.1zm4-.6l5.2 3a.91.91 0 0 0 1 0l10.3-5.9c.5-.3.6-.9.3-1.4-.1-.1-.2-.3-.3-.3l-5.2-3a.91.91 0 0 0-1 0l-10.3 5.9c-.5.3-.6.9-.3 1.4l.3.3zM51.9 376l-9.2 5.3c-.5.3-.7.9-.4 1.5a.78.78 0 0 0 .4.4l9.1 5.3c.3.2.7.2 1.1 0l9.2-5.3c.5-.3.7-.9.4-1.5a.78.78 0 0 0-.4-.4L53 376c-.4-.1-.8-.1-1.1 0zm20.7 3.7L56 389.3c-.5.2-.6.8-.4 1.2a.78.78 0 0 0 .4.4l9.4 5.4c.3.2.6.2.9 0l16.6-9.6c.5-.3.6-.8.3-1.3-.1-.1-.2-.3-.3-.3l-9.4-5.4c-.2-.1-.6-.1-.9 0zm16 5.7l-19.7 11.4c-.4.3-.6.8-.3 1.3l.3.3 9.5 5.5c.3.2.6.2.9 0L99 392.5c.4-.3.6-.8.3-1.3-.1-.1-.2-.3-.3-.3l-9.5-5.5c-.2-.2-.6-.2-.9 0zm19.8 3.5L82 404.1c-.5.3-.6 1-.3 1.5l.3.3 9.2 5.3c.3.2.7.2 1.1 0l26.4-15.3c.5-.3.6-1 .3-1.5l-.3-.3-9.2-5.3c-.4-.1-.8-.1-1.1.1zm146.8-86.6l19.7-11.4c.5-.3.6-.8.4-1.3a.78.78 0 0 0-.4-.4l-9.4-5.4a.91.91 0 0 0-1 0l-19.7 11.4c-.5.3-.6.8-.4 1.3.1.1.2.3.4.4l9.4 5.4c.4.1.8.1 1 0zm6 11.4l26.7-15.4c.4-.3.6-.8.3-1.3-.1-.1-.2-.3-.3-.3l-9.5-5.4c-.3-.2-.6-.2-.9 0l-26.7 15.4c-.4.3-.6.8-.3 1.3.1.1.2.3.3.3l9.5 5.5c.3.1.6.1.9-.1z"/><use xlink:href="#i"/><path d="M86.3 371.8l-9.4 5.4c-.5.3-.6.9-.3 1.4.1.1.2.3.3.3l9.3 5.4a.91.91 0 0 0 1 0l9.4-5.4c.5-.3.6-.9.3-1.4-.1-.1-.2-.3-.3-.3l-9.3-5.4c-.3-.1-.7-.1-1 0zm16.1 5.6l-9.4 5.4c-.5.3-.6 1-.3 1.5l.3.3 9.3 5.3a.91.91 0 0 0 1 0l9.4-5.4c.5-.3.6-1 .3-1.5l-.3-.3-9.3-5.3c-.3-.1-.7-.1-1 0z"/><use xlink:href="#j"/><path d="M107 419.8l9.2-5.3c.5-.3.7-1 .4-1.5a.78.78 0 0 0-.4-.4l-9.2-5.3c-.3-.2-.7-.2-1.1 0l-9.3 5.3c-.5.3-.7 1-.4 1.5a.78.78 0 0 0 .4.4l9.2 5.3c.5.2.9.2 1.2 0z"/><use xlink:href="#k"/><use xlink:href="#l"/><path d="M251.8 336.2l9.5-5.4c.5-.3.6-.8.4-1.3-.1-.1-.2-.3-.4-.4l-9.4-5.4a.91.91 0 0 0-1 0l-9.5 5.5c-.5.3-.6.9-.3 1.4l.3.3 9.4 5.4c.3.1.7.1 1-.1zM148.3 396l12.6-7.2c.5-.3.6-.9.3-1.4-.1-.1-.2-.3-.3-.3l-9.3-5.4a.91.91 0 0 0-1 0l-12.6 7.2c-.5.3-.6.9-.3 1.4.1.1.2.3.3.3l9.3 5.3c.3.2.7.2 1 .1zm86.4-49.9l12.7-7.3c.4-.3.6-.8.3-1.3-.1-.1-.2-.3-.3-.3l-9.4-5.5c-.3-.2-.6-.2-.9 0l-12.7 7.3c-.4.3-.6.8-.3 1.3.1.1.2.3.3.3l9.4 5.5c.2.2.6.2.9 0zm-69.5 40.1l64.8-37.4c.5-.3.6-.9.3-1.4l-.3-.3-9.4-5.4a.91.91 0 0 0-1 0l-64.8 37.4c-.5.3-.6.9-.3 1.4l.3.3 9.4 5.4a.91.91 0 0 0 1 0zm-27.8-1l9.4-5.4c.5-.3.6-.9.3-1.4-.1-.1-.2-.3-.3-.3l-9.3-5.3a.91.91 0 0 0-1 0l-9.4 5.4c-.5.3-.6.9-.3 1.4.1.1.2.3.3.3l9.3 5.3a.91.91 0 0 0 1 0zm12.7-20.4l-9.4 5.5c-.5.3-.6.9-.3 1.4.1.1.2.3.3.3l9.3 5.3a.91.91 0 0 0 1 0l9.4-5.4c.5-.3.6-.9.3-1.4-.1-.1-.2-.3-.3-.3l-9.3-5.3c-.3-.2-.7-.2-1-.1z"/><use xlink:href="#m"/><path d="M177.6 348.9l-9.5 5.5c-.5.3-.6.8-.3 1.3.1.1.2.3.3.3l9.4 5.4c.3.2.7.2.9 0l9.5-5.5c.5-.3.6-.8.3-1.3-.1-.1-.2-.3-.3-.3l-9.4-5.4c-.3-.1-.7-.1-.9 0zm13.7-7.8l-9.5 5.5c-.5.3-.6.9-.3 1.4l.3.3 9.4 5.4c.3.2.7.2.9 0l9.5-5.5c.5-.3.6-.8.4-1.3a.78.78 0 0 0-.4-.4l-9.4-5.4c-.3-.2-.6-.2-.9 0z"/><use xlink:href="#n"/><path d="M218.6 325.3l-9.3 5.3c-.5.3-.6 1-.3 1.5l.3.3 9.2 5.3c.3.2.7.2 1.1 0l9.3-5.3c.5-.3.7-1 .3-1.5-.1-.1-.2-.3-.3-.3l-9.2-5.3c-.3-.2-.7-.2-1.1 0zm13.8-8l-9.5 5.5c-.5.3-.6.8-.4 1.3.1.1.2.3.4.4l9.4 5.4a.91.91 0 0 0 1 0l9.5-5.5c.5-.3.6-.8.4-1.3-.1-.1-.2-.3-.4-.4l-9.4-5.4a.91.91 0 0 0-1 0zm13.7-7.8l-9.3 5.3c-.5.3-.6 1-.3 1.5l.3.3 9.3 5.3a.91.91 0 0 0 1 0l9.3-5.4c.5-.3.6-1 .3-1.5l-.3-.3-9.3-5.3c-.3-.2-.7-.1-1 .1zm-129.9 60l-9.2 5.3c-.5.3-.7.9-.4 1.5a.78.78 0 0 0 .4.4l9.2 5.3c.3.2.7.2 1.1 0l9.2-5.3c.5-.3.7-.9.4-1.5a.78.78 0 0 0-.4-.4l-9.2-5.3c-.3-.2-.8-.2-1.1 0zm13.8-8l-9.2 5.3c-.5.3-.7.9-.5 1.4.1.2.3.4.5.5l9.1 5.2c.3.2.7.2 1.1 0l9.2-5.3c.5-.3.7-.9.5-1.4-.1-.2-.3-.4-.5-.5l-9.1-5.2c-.4-.1-.8-.2-1.1 0zm13.9-8l-9.6 5.5c-.4.3-.6.8-.3 1.2l.3.3 9.5 5.5c.3.2.6.2.9 0l9.6-5.5c.4-.2.6-.8.3-1.2-.1-.1-.2-.3-.3-.3l-9.5-5.5c-.2-.2-.6-.2-.9 0z"/><use xlink:href="#o"/><path d="M171.5 337.5l-9.3 5.4c-.5.3-.6 1-.3 1.5l.3.3 9.2 5.3c.3.2.7.2 1.1 0l9.3-5.4c.5-.3.6-1 .3-1.5l-.3-.3-9.3-5.3c-.3-.1-.7-.1-1 0zm13.9-8l-9.5 5.5c-.5.3-.6.9-.3 1.4l.3.3 9.4 5.4a.91.91 0 0 0 1 0l9.4-5.4c.5-.3.6-.9.3-1.4l-.3-.3-9.4-5.4c-.2-.2-.6-.2-.9-.1zm13.7-7.9l-9.3 5.3c-.5.3-.6 1-.3 1.5l.3.3 9.2 5.3c.3.2.7.2 1.1 0l9.3-5.3c.5-.3.6-1 .3-1.5l-.3-.3-9.2-5.3c-.3-.2-.7-.2-1.1 0zm13.9-8l-9.4 5.5c-.5.3-.6.9-.4 1.4a.78.78 0 0 0 .4.4l9.3 5.3a.91.91 0 0 0 1 0l9.4-5.4c.5-.3.6-.9.4-1.4a.78.78 0 0 0-.4-.4l-9.3-5.3c-.3-.2-.7-.3-1-.1zm13.8-8l-9.3 5.4c-.5.3-.6 1-.3 1.5l.3.3 9.2 5.3c.3.2.7.2 1.1 0l9.3-5.3c.5-.3.6-1 .3-1.5l-.3-.3-9.2-5.3c-.4-.3-.8-.3-1.1-.1zm13.9-8l-9.5 5.5c-.5.3-.6.8-.4 1.3.1.1.2.3.4.4l9.4 5.4a.91.91 0 0 0 1 0l9.5-5.5c.5-.3.6-.8.4-1.3-.1-.1-.2-.3-.4-.4l-9.4-5.4c-.4-.1-.7-.1-1 0z"/><use xlink:href="#p"/><use xlink:href="#q"/><path d="M128.5 360.5l9.5-5.5c.4-.3.6-.8.3-1.3-.1-.1-.2-.3-.3-.3l-9.4-5.4c-.3-.2-.6-.2-.9 0l-9.5 5.5c-.4.3-.6.8-.3 1.3.1.1.2.3.3.3l9.4 5.4c.3.2.6.2.9 0z"/><use xlink:href="#r"/><use xlink:href="#s"/><path d="M169.8 336.7l9.6-5.5c.4-.3.6-.8.3-1.2l-.3-.3-9.5-5.5c-.3-.2-.6-.2-.9 0l-9.6 5.5c-.4.3-.6.8-.3 1.2l.3.3 9.5 5.5c.3.1.6.1.9 0zm13-20.6l-9.5 5.5c-.5.3-.6.8-.3 1.3.1.1.2.3.3.3l9.4 5.4c.3.2.7.2.9 0l9.5-5.5c.5-.3.6-.8.3-1.3-.1-.1-.2-.3-.3-.3l-9.4-5.4c-.3-.1-.6-.1-.9 0z"/><use xlink:href="#t"/><path d="M211.2 312.8l9.5-5.5c.4-.3.6-.8.3-1.3-.1-.1-.2-.3-.3-.3l-9.4-5.4c-.3-.2-.6-.2-.9 0l-9.5 5.5c-.4.3-.6.8-.3 1.3.1.1.2.3.3.3l9.4 5.5c.2 0 .6 0 .9-.1z"/><use xlink:href="#k" x="104.2" y="-107.1"/><use xlink:href="#q" x="124" y="-71.6"/><path d="M252.5 288.9l9.5-5.5c.5-.3.6-.8.4-1.3-.1-.1-.2-.3-.4-.4l-9.4-5.4c-.3-.2-.7-.2-.9 0l-9.5 5.5c-.5.3-.6.9-.3 1.4l.3.3 9.4 5.4c.3.2.6.2.9 0z"/><use xlink:href="#u"/><path d="M93.2 352.2l-9.1 5.3c-.6.3-.8 1-.5 1.5.1.2.3.4.5.5l9 5.2c.3.2.8.2 1.1 0l9.1-5.3c.6-.3.8-1 .5-1.5-.1-.2-.3-.4-.5-.5l-9-5.2c-.3-.2-.8-.2-1.1 0z"/><use xlink:href="#v"/><path d="M121.8 348.7l9.1-5.3c.5-.3.7-1 .4-1.5a.78.78 0 0 0-.4-.4l-9.1-5.2c-.3-.2-.7-.2-1.1 0l-9.2 5.3c-.5.3-.7 1-.4 1.5a.78.78 0 0 0 .4.4l9.1 5.2c.4.3.9.2 1.2 0z"/><use xlink:href="#r" x="-6.8" y="-11.7"/><path d="M149.3 332.9l9.4-5.4c.5-.3.6-.9.3-1.4l-.3-.3-9.4-5.4a.91.91 0 0 0-1 0l-9.4 5.4c-.5.3-.6.9-.3 1.4l.3.3 9.4 5.4c.3.1.7.1 1 0zm12.8-20.5l-9.4 5.4c-.5.3-.6.9-.3 1.4l.3.3 9.4 5.4a.91.91 0 0 0 1 0l9.4-5.4c.5-.3.6-.9.3-1.4l-.3-.3-9.4-5.4c-.3-.2-.6-.2-1 0zm13.8-7.9l-9.2 5.3c-.5.3-.7.9-.5 1.4.1.2.3.4.5.5l9.1 5.2c.3.2.7.2 1.1 0l9.2-5.3c.5-.3.7-.9.5-1.4-.1-.2-.3-.4-.5-.5l-9.1-5.2c-.4-.3-.8-.2-1.1 0zm14.7 4.5l9.5-5.5c.4-.3.6-.8.3-1.3-.1-.1-.2-.3-.3-.3l-9.4-5.4c-.3-.2-.6-.2-.9 0l-9.5 5.5c-.4.3-.6.8-.3 1.3.1.1.2.3.3.3l9.4 5.4c.2.2.6.2.9 0z"/><use xlink:href="#w"/><path d="M218.2 293.1l9.4-5.4c.5-.3.6-.9.3-1.4l-.3-.3-9.4-5.4a.91.91 0 0 0-1 0l-9.4 5.4c-.5.3-.6.9-.3 1.4l.3.3 9.3 5.4a1.08 1.08 0 0 0 1.1 0z"/><use xlink:href="#x"/><path d="M266.1 328.6l9.4-5.4c.5-.3.6-.9.3-1.4l-.3-.3-3.9-2.3a.91.91 0 0 0-1 0l-9.5 5.4c-.5.3-.6.9-.3 1.4l.3.3 3.9 2.3c.4.2.8.2 1.1 0z"/><use xlink:href="#y"/><path d="M279.8 320.6l9.7-5.6c.4-.2.5-.7.3-1.1-.1-.1-.2-.3-.3-.3l-4.3-2.5c-.2-.1-.6-.1-.8 0l-9.7 5.6c-.4.2-.5.7-.3 1.1l.3.3 4.3 2.5c.2.2.5.2.8 0zm-6.7-3.9l9.4-5.4c.5-.3.6-1 .3-1.5l-.3-.3-3.9-2.2a.91.91 0 0 0-1 0l-9.4 5.4c-.5.3-.6.9-.4 1.4a.78.78 0 0 0 .4.4l3.9 2.2c.4.2.7.2 1 0z"/></g><g class="f"><path d="M43.2 368.9l-10.5 6c-.4.3-.6.8-.3 1.3.1.1.2.3.3.3l5.3 3.1c.3.2.6.2.9 0l10.4-6c.4-.3.6-.8.3-1.3-.1-.1-.2-.3-.3-.3l-5.3-3.1c-.2-.2-.5-.2-.8 0zm14.3-8.2l-10.4 6c-.4.3-.6.8-.3 1.3.1.1.2.3.3.3l5.3 3.1c.3.2.6.2.9 0l10.4-6c.4-.3.6-.8.3-1.3-.1-.1-.2-.3-.3-.3l-5.4-3.1c-.2-.2-.5-.2-.8 0z"/><use xlink:href="#f" x="-.1" y="-1.1"/><path d="M86 344.2l-10.4 6c-.4.3-.6.8-.3 1.2l.3.3 5.4 3.1c.3.2.6.2.9 0l10.4-6c.4-.2.6-.8.3-1.2-.1-.1-.2-.3-.3-.3l-5.4-3.1c-.3-.2-.6-.2-.9 0zm14.2-8.2l-10.4 6c-.4.3-.6.8-.3 1.3.1.1.2.3.3.3l5.3 3.1c.3.2.6.2.9 0l10.4-6c.4-.2.6-.8.3-1.2-.1-.1-.2-.3-.3-.3l-5.3-3.1c-.2-.3-.6-.3-.9-.1z"/><use xlink:href="#g" x="-.1" y="-1.1"/><path d="M128.6 319.6l-10 5.8c-.6.3-.8 1-.5 1.5.1.2.3.4.5.5l4.9 2.9c.3.2.8.2 1.1 0l10-5.8c.6-.3.8-1 .5-1.5-.1-.2-.3-.4-.5-.5l-4.9-2.9c-.3-.2-.7-.2-1.1 0zm14.4-8.3l-10.4 6c-.4.2-.6.8-.3 1.2.1.1.2.3.3.3l5.4 3.2c.3.2.6.2.9 0l10.4-6c.4-.2.6-.8.3-1.2-.1-.1-.2-.3-.3-.3l-5.4-3.1c-.2-.3-.6-.3-.9-.1zm14.3-8.3l-10.4 6c-.4.3-.6.8-.3 1.2l.3.3 5.4 3.1c.3.2.6.2.9 0l10.4-6c.4-.3.6-.8.3-1.2l-.3-.3-5.4-3.1c-.3-.2-.7-.2-.9 0zm14.1-8.1l-10.2 5.9c-.5.3-.6 1-.3 1.5l.3.3 5.1 3c.3.2.7.2 1.1 0l10.2-5.9c.5-.3.6-1 .3-1.5l-.3-.3-5.1-3c-.3-.3-.7-.2-1.1 0zm14.4-8.3l-10.4 6c-.5.3-.6.8-.3 1.3.1.1.2.3.3.3l5.3 3.1c.3.2.6.2.9 0l10.4-6c.5-.3.6-.8.3-1.3-.1-.1-.2-.3-.3-.3l-5.3-3.1c-.3-.2-.7-.2-.9 0z"/><use xlink:href="#h" x="-.1" y="-1.2"/><path d="M214.2 270.2l-10.1 5.8c-.5.3-.7.9-.5 1.4.1.2.3.4.5.5l5 2.9c.3.2.7.2 1.1 0l10.1-5.8c.5-.3.7-.9.4-1.4-.1-.2-.3-.3-.4-.4l-5-2.9c-.3-.3-.8-.3-1.1-.1zm4-.6l5.2 3a.91.91 0 0 0 1 0l10.3-5.9c.5-.3.6-.9.3-1.4-.1-.1-.2-.3-.3-.3l-5.2-3a.91.91 0 0 0-1 0l-10.3 5.9c-.5.3-.6.9-.4 1.4.1.1.3.2.4.3zM51.8 374.9l-9.2 5.3c-.5.3-.7.9-.4 1.5a.78.78 0 0 0 .4.4l9.2 5.3c.3.2.7.2 1.1 0L62 382c.5-.3.7-.9.4-1.5a.78.78 0 0 0-.4-.4l-9.1-5.3c-.4-.1-.8-.1-1.1.1zm20.7 3.7l-16.6 9.6c-.4.3-.6.8-.3 1.3.1.1.2.3.3.3l9.4 5.4c.3.2.6.2.9 0l16.6-9.6c.5-.3.6-.9.3-1.3l-.3-.3-9.4-5.4c-.3-.2-.6-.2-.9 0zm16 5.7l-19.7 11.4c-.4.3-.6.8-.3 1.3.1.1.2.3.3.3l9.4 5.5c.3.2.6.2.9 0l19.7-11.4c.4-.3.6-.8.3-1.3-.1-.1-.2-.3-.3-.3l-9.4-5.5c-.3-.2-.6-.2-.9 0zm19.8 3.5L81.9 403c-.5.3-.6 1-.3 1.5l.3.3 9.2 5.3c.3.2.7.2 1.1 0l26.4-15.2c.5-.3.6-1 .3-1.5l-.3-.3-9.2-5.3c-.4-.2-.8-.2-1.1 0z"/><use xlink:href="#z"/><use xlink:href="#AA"/><use xlink:href="#i" x="-.1" y="-1.2"/><path d="M86.1 370.7l-9.4 5.4c-.5.3-.6.9-.3 1.4.1.1.2.3.3.3l9.3 5.4a.91.91 0 0 0 1 0l9.4-5.4c.5-.3.6-.9.3-1.4-.1-.1-.2-.3-.3-.3l-9.2-5.4a1.08 1.08 0 0 0-1.1 0zm16.2 5.6l-9.3 5.4c-.5.3-.7.9-.4 1.4a.78.78 0 0 0 .4.4l9.3 5.3a.91.91 0 0 0 1 0l9.4-5.4c.5-.3.6-1 .3-1.5l-.3-.3-9.3-5.3c-.4-.2-.8-.2-1.1 0z"/><use xlink:href="#j" x="-.1" y="-1.2"/><path d="M106.9 418.7l9.3-5.3c.5-.3.7-1 .4-1.5a.78.78 0 0 0-.4-.4l-9.2-5.3c-.3-.2-.7-.2-1.1 0l-9.3 5.3c-.5.3-.7 1-.4 1.5a.78.78 0 0 0 .4.4l9.2 5.3c.4.2.8.2 1.1 0z"/><use xlink:href="#k" x="-.1" y="-1.2"/><use xlink:href="#l" x="-.2" y="-1.1"/><path d="M251.7 335.1l9.5-5.5c.5-.3.6-.8.4-1.3-.1-.1-.2-.3-.4-.4l-9.4-5.4a.91.91 0 0 0-1 0l-9.4 5.5c-.5.3-.6.9-.3 1.4l.3.3 9.4 5.4c.2.1.6.1.9 0zm-103.5 59.7l12.6-7.3c.5-.3.6-.9.3-1.4-.1-.1-.2-.3-.3-.3l-9.3-5.3a.91.91 0 0 0-1 0l-12.6 7.3c-.5.3-.6.9-.3 1.4.1.1.2.3.3.3l9.3 5.3a.91.91 0 0 0 1 0zm86.4-49.8l12.7-7.3c.4-.3.6-.8.3-1.3-.1-.1-.2-.3-.3-.3l-9.4-5.5c-.3-.2-.6-.2-.9 0l-12.7 7.3c-.4.3-.6.8-.3 1.3.1.1.2.3.3.3l9.4 5.5c.2.1.6.1.9 0zm-69.5 40.1l64.8-37.4c.5-.3.6-.9.3-1.4l-.3-.3-9.3-5.4a.91.91 0 0 0-1 0L154.8 378c-.5.3-.6.9-.3 1.4l.3.3 9.4 5.4c.2.1.6.1.9 0zm-27.9-1l9.4-5.4c.5-.3.6-.9.4-1.4a.78.78 0 0 0-.4-.4l-9.3-5.3a.91.91 0 0 0-1 0l-9.4 5.4c-.5.3-.6.9-.3 1.4.1.1.2.3.3.3l9.3 5.3c.3.3.7.3 1 .1z"/><use xlink:href="#v" x="43" y="19.5"/><use xlink:href="#m" x="-.1" y="-1.1"/><path d="M177.4 347.9l-9.4 5.5c-.5.3-.6.8-.3 1.3.1.1.2.3.3.3l9.4 5.4c.3.2.7.2.9 0l9.5-5.5c.5-.3.6-.8.4-1.3a.78.78 0 0 0-.4-.4l-9.4-5.4c-.3-.1-.7-.1-1 .1zm13.7-8l-9.5 5.5c-.5.3-.6.9-.3 1.4l.3.3 9.4 5.4c.3.2.7.2.9 0l9.5-5.5c.5-.3.6-.8.3-1.3-.1-.1-.2-.3-.3-.3L192 340c-.2-.2-.6-.2-.9-.1zm14.7 4.6l9.2-5.3c.5-.3.7-.9.5-1.4-.1-.2-.3-.4-.5-.5l-9.1-5.3c-.3-.2-.7-.2-1.1 0l-9.2 5.3c-.5.3-.7.9-.5 1.4.1.2.3.4.5.5l9.1 5.2c.4.3.8.3 1.1.1zm12.7-20.4l-9.3 5.3c-.5.3-.6 1-.3 1.5l.3.3 9.2 5.3c.3.2.7.2 1.1 0l9.3-5.3c.5-.3.7-1 .3-1.5-.1-.1-.2-.3-.3-.3l-9.2-5.3c-.3-.2-.8-.2-1.1 0zm13.8-7.9l-9.5 5.5c-.5.3-.6.9-.3 1.4l.3.3 9.4 5.4c.3.2.7.2.9 0l9.5-5.5c.5-.3.6-.9.3-1.4l-.3-.3-9.4-5.4c-.3-.2-.6-.2-.9 0zm13.7-7.9l-9.4 5.5c-.5.3-.6 1-.3 1.5l.3.3 9.3 5.3a.91.91 0 0 0 1 0l9.3-5.4c.5-.3.6-1 .3-1.5l-.3-.3-9.3-5.3c-.2-.3-.6-.3-.9-.1zm-129.9 60l-9.2 5.3c-.5.3-.7.9-.4 1.5a.78.78 0 0 0 .4.4l9.2 5.3c.3.2.7.2 1.1 0l9.2-5.3c.5-.3.7-.9.4-1.5a.78.78 0 0 0-.4-.4l-9.2-5.3c-.4-.2-.8-.2-1.1 0zm13.8-7.9l-9.2 5.3c-.5.3-.7.9-.5 1.4.1.2.3.4.5.5l9.1 5.2c.3.2.8.2 1.1 0l9.2-5.3c.5-.3.7-1 .4-1.5a.78.78 0 0 0-.4-.4l-9.1-5.2c-.3-.2-.8-.2-1.1 0zm13.9-8.1l-9.6 5.5c-.4.3-.6.8-.3 1.2l.3.3 9.5 5.5c.3.2.6.2.9 0l9.6-5.5c.4-.2.6-.8.3-1.2-.1-.1-.2-.3-.3-.3l-9.5-5.5c-.2-.1-.6-.1-.9 0z"/><use xlink:href="#o" x="-.1" y="-1.2"/><path d="M171.4 336.4l-9.3 5.4c-.5.3-.6 1-.3 1.5l.3.3 9.3 5.3a.91.91 0 0 0 1 0l9.3-5.4c.5-.3.6-1 .3-1.5l-.3-.3-9.2-5.3c-.4-.2-.8-.2-1.1 0zm13.9-8l-9.4 5.4c-.5.3-.6.9-.3 1.4l.3.3 9.4 5.4a.91.91 0 0 0 1 0l9.4-5.4c.5-.3.6-.9.3-1.4l-.3-.3-9.4-5.4c-.4-.2-.7-.2-1 0z"/><use xlink:href="#i" x="133.3" y="-47.7"/><use xlink:href="#m" x="49.1" y="-44.4"/><path d="M226.7 304.5l-9.3 5.3c-.5.3-.6 1-.3 1.5l.3.3 9.2 5.3c.3.2.7.2 1.1 0l9.3-5.4c.5-.3.6-1 .3-1.5l-.3-.3-9.2-5.3c-.4-.1-.8-.1-1.1.1zm13.8-8L231 302c-.5.3-.6.8-.4 1.3.1.1.2.3.4.4l9.4 5.4a.91.91 0 0 0 1 0l9.5-5.5c.5-.3.6-.9.3-1.4l-.3-.3-9.4-5.4c-.3-.2-.6-.2-1 0z"/><use xlink:href="#p" x="-.1" y="-1.2"/><path d="M113.8 354.8l-9.5 5.5c-.5.3-.6.8-.3 1.3.1.1.2.3.3.3l9.4 5.4c.3.2.7.2.9 0l9.5-5.5c.5-.3.6-.8.3-1.3-.1-.1-.2-.3-.3-.3l-9.4-5.4c-.3-.2-.7-.2-.9 0zm14.6 4.6l9.5-5.5c.4-.3.6-.8.3-1.3-.1-.1-.2-.3-.3-.3l-9.4-5.5c-.3-.2-.6-.2-.9 0l-9.5 5.5c-.4.3-.6.8-.3 1.3.1.1.2.3.3.3l9.4 5.4c.2.2.6.2.9.1zm13.9-8l9.2-5.3c.5-.3.7-.9.5-1.4-.1-.2-.3-.4-.5-.5l-9.1-5.2c-.3-.2-.7-.2-1.1 0l-9.2 5.3c-.5.3-.7.9-.5 1.4.1.2.3.4.5.5l9.1 5.2c.3.1.7.1 1.1 0z"/><use xlink:href="#s" x="-.1" y="-1.2"/><path d="M169.7 335.5l9.6-5.5c.4-.3.6-.8.3-1.2l-.3-.3-9.5-5.5c-.3-.2-.6-.2-.9 0l-9.6 5.5c-.4.3-.6.8-.3 1.2l.3.3 9.5 5.5c.3.2.6.2.9 0zm12.9-20.5l-9.5 5.5c-.5.3-.6.8-.3 1.3.1.1.2.3.3.3l9.4 5.4c.3.2.6.2.9 0l9.5-5.5c.5-.3.6-.8.3-1.3-.1-.1-.2-.3-.3-.3l-9.4-5.4c-.2-.2-.6-.2-.9 0z"/><use xlink:href="#t" x="-.1" y="-1.1"/><path d="M211.1 311.6l9.5-5.5c.4-.3.6-.8.3-1.3-.1-.1-.2-.3-.3-.3l-9.4-5.4c-.3-.2-.6-.2-.9 0l-9.5 5.5c-.4.3-.6.8-.3 1.3.1.1.2.3.3.3l9.4 5.5c.2.1.6.1.9-.1zm13.8-8l9.2-5.3c.5-.3.7-.9.5-1.4-.1-.2-.3-.4-.5-.5l-9.1-5.3c-.3-.2-.7-.2-1.1 0l-9.2 5.3c-.5.3-.7.9-.5 1.4.1.2.3.4.5.5l9.1 5.3c.4.2.8.2 1.1 0zm12.9-20.4l-9.5 5.5c-.5.3-.6.8-.3 1.3.1.1.2.3.3.3l9.4 5.4c.3.2.7.2.9 0l9.5-5.5c.5-.3.6-.8.3-1.3-.1-.1-.2-.3-.3-.3l-9.4-5.4c-.3-.2-.6-.2-.9 0zm14.6 4.6l9.5-5.5c.5-.3.6-.8.4-1.3-.1-.1-.2-.3-.4-.4l-9.4-5.4a.91.91 0 0 0-1 0l-9.5 5.5c-.5.3-.6.8-.4 1.3.1.1.2.3.4.4l9.4 5.4c.3.1.7.1 1 0z"/><use xlink:href="#u" x="-.1" y="-1.1"/><path d="M93.1 351.1l-9.1 5.3c-.6.3-.8 1-.5 1.5.1.2.3.3.5.5l9.1 5.2c.3.2.8.2 1.1 0l9.1-5.3c.6-.3.8-1 .5-1.5-.1-.2-.3-.4-.5-.5l-9-5.2c-.4-.3-.9-.3-1.2 0z"/><use xlink:href="#v" x="-.1" y="-1.1"/><path d="M121.7 347.6l9.2-5.3c.5-.3.7-1 .4-1.5a.78.78 0 0 0-.4-.4l-9.1-5.2c-.3-.2-.8-.2-1.1 0l-9.2 5.3c-.5.3-.7 1-.4 1.5a.78.78 0 0 0 .4.4l9.1 5.2c.3.2.7.2 1.1 0z"/><use xlink:href="#n" x="-70.5" y="-6"/><path d="M149.1 331.7l9.4-5.4c.5-.3.6-.9.3-1.4l-.3-.3-9.3-5.4a.91.91 0 0 0-1 0l-9.4 5.4c-.5.3-.6.9-.3 1.4l.3.3 9.3 5.4c.4.2.7.2 1 0zm12.9-20.5l-9.4 5.5c-.5.3-.6.9-.3 1.4l.3.3 9.4 5.4a.91.91 0 0 0 1 0l9.4-5.5c.5-.3.6-.9.3-1.4l-.3-.3-9.4-5.4a.91.91 0 0 0-1 0zm13.8-7.9l-9.2 5.3c-.5.3-.7.9-.5 1.4.1.2.3.4.5.5l9.1 5.2c.3.2.7.2 1.1 0l9.2-5.3c.5-.3.7-.9.5-1.4-.1-.2-.3-.4-.5-.5l-9.1-5.2c-.4-.2-.8-.2-1.1 0zm14.7 4.6l9.5-5.5c.4-.3.6-.8.3-1.3-.1-.1-.2-.3-.3-.3l-9.4-5.4c-.3-.2-.6-.2-.9 0l-9.5 5.5c-.4.3-.6.8-.3 1.3.1.1.2.3.3.3l9.4 5.4c.2.1.6.1.9 0z"/><use xlink:href="#w" x="-.1" y="-1.2"/><path d="M218.1 291.9l9.4-5.4c.5-.3.6-.9.3-1.4-.1-.1-.2-.3-.3-.3l-9.3-5.3a.91.91 0 0 0-1 0l-9.4 5.4c-.5.3-.6.9-.3 1.4l.3.3 9.4 5.3c.2.2.5.2.9 0z"/><use xlink:href="#x" x="-.1" y="-1.2"/><use xlink:href="#AB"/><use xlink:href="#y" x="-.1" y="-1.1"/><use xlink:href="#AC"/><use xlink:href="#AD"/></g><linearGradient id="C" gradientUnits="userSpaceOnUse" x1="250.26" y1="301.354" x2="288.233" y2="301.354"><stop offset=".01" stop-color="#f1f4f7" stop-opacity="0"/><stop offset=".69" stop-color="#f1f4f7"/></linearGradient><use xlink:href="#AA" fill="url(#C)" class="U"/><linearGradient id="D" gradientUnits="userSpaceOnUse" x1="267.65" y1="310.849" x2="282.91" y2="310.849"><stop offset=".01" stop-color="#f1f4f7" stop-opacity="0"/><stop offset=".69" stop-color="#f1f4f7"/></linearGradient><use xlink:href="#AD" fill="url(#D)" class="U"/><linearGradient id="E" gradientUnits="userSpaceOnUse" x1="288.328" y1="307.91" x2="303.472" y2="307.91"><stop offset=".01" stop-color="#f1f4f7"/><stop offset=".69" stop-color="#f1f4f7"/></linearGradient><use xlink:href="#y" x="-.1" y="-1.1" fill="url(#E)" class="U"/><linearGradient id="F" gradientUnits="userSpaceOnUse" x1="275.592" y1="312.405" x2="288.462" y2="317.085"><stop offset=".01" stop-color="#f1f4f7" stop-opacity=".6"/><stop offset=".69" stop-color="#f1f4f7"/></linearGradient><use xlink:href="#AC" fill="url(#F)" class="U"/><linearGradient id="G" gradientUnits="userSpaceOnUse" x1="260.597" y1="322.7" x2="275.883" y2="322.7"><stop offset=".01" stop-color="#f1f4f7" stop-opacity=".6"/><stop offset=".69" stop-color="#f1f4f7"/></linearGradient><use xlink:href="#AB" fill="url(#G)" class="U"/><linearGradient id="H" gradientUnits="userSpaceOnUse" x1="244.33" y1="291.875" x2="275.281" y2="291.875"><stop offset=".01" stop-color="#f1f4f7" stop-opacity="0"/><stop offset=".69" stop-color="#f1f4f7"/></linearGradient><use xlink:href="#z" fill="url(#H)" class="U"/><path d="M292.8 364.6l-84 48.5c-.6.4-1.4.4-2 0L170.1 392c-.9-.6-1.2-1.8-.7-2.7.2-.3.4-.5.7-.7l81.5-47a2.12 2.12 0 0 1 1.9 0l39.3 19.6c1 .5 1.3 1.7.8 2.7-.2.3-.5.6-.8.7z" class="f"/><path d="M292.8 365.4l-84 48.5c-.6.4-1.4.4-2 0l-36.7-21.1c-.9-.6-1.3-1.8-.7-2.7.2-.3.4-.5.7-.7l81.5-47a2.12 2.12 0 0 1 1.9 0l39.3 19.6c1 .5 1.3 1.7.8 2.7-.2.3-.5.5-.8.7z" fill="#d6e1e9"/><linearGradient id="I" gradientUnits="userSpaceOnUse" x1="48.78" y1="323.33" x2="404.76" y2="323.33"><stop offset="0" stop-color="#0c4266" stop-opacity="0"/><stop offset=".9" stop-color="#0c4266"/></linearGradient><path d="M187.6 203.2L48.8 281.1l4.2 64.1 43.8 23.6 37.5-21.8 102.8 61.4 1.1 6.3 48 28.7 118.6-67.9-218.4-125.7z" fill="url(#I)" class="U"/><g opacity=".54"><linearGradient id="J" gradientUnits="userSpaceOnUse" x1="219.341" y1="421.717" x2="393.689" y2="234.749"><stop offset="0" stop-color="#92aabb" stop-opacity="0"/><stop offset="1" stop-color="#92aabb"/></linearGradient><path d="M203.1 348.3c.5-1.1 6.6-1.7 8.1-1.6 2.4.2 4.7.8 6.8 1.9 2.2 1 4 2.4 6.7 2.9 3.8.8 8.6.2 12.6.3 1.4 0 2.9.1 4.5.1-13.9 5.9-26.6 14.7-34.3 23.2-4.5 4.9-7.5 10.1-8.2 15.5-.4 3.3 6 14.3 4.1 16.3 3.4-3.8 6.6-9.8 12.1-13.1 6.7-3.9 11-3.4 16.6-7.6 4.3-3.2 4.5-8 10.7-10.7 7.9-3.4 11.3-2.4 17.9-6.9 6.1-4.1 10.7-9 17-13.1 8-5.1 10.5-11.4 18.2-16.2 1.9.9 3.8 1.7 5.8 2.4-2.2 2-5.5 3.8-7.7 5.9-10.9 10.3-9 22.5-14.8 33.5-2.9 5.6-7 20.3 2.2 24 13-7.7 3-22.9 20.3-27.8 2-.5 8.4-.7 9.7-1.6 3.6-2.5-.6-9.6-.5-12.3.2-3 .4-5.3-.5-8.2-.5-1.4-3.2-5.3-1.2-6.8 1.3-1 6.7-1.1 11.6-1.4a95.38 95.38 0 0 0 15.1 1.5c11.4.2 19.9-2 24.5-5.7l70.9-57c4.6-3.7 5.2-9 .7-14.8-.3-.4-.5-.7-.9-1.1l-.3-.4c-.2-.2-.4-.5-.6-.7l-1-1-1-.8-.1-.1-1.6-1.3-.3-.2-1.5-1.1-.2-.2-.3-.2-1-.7-.6-.4c-.4-.2-.8-.5-1.1-.7l-.4-.3-.1-.1-1.1-.6-.6-.3-1.5-.8-.3-.1-2.2-1.1-1.4-.6-.6-.3-1.2-.5-.8-.3-1.1-.5h-.1l-.6-.2-1.3-.5-.8-.3-1.2-.4-.2-.1-.6-.2-1.4-.5-.9-.3-1.4-.4-.5-.1-.3-.1-2.2-.6-.4-.1-2.6-.6-.2-.1-.7-.2-1.2-.3-1.1-.2-1.2-.2c-.3-.1-.7-.1-1.1-.2l-1.2-.2-1.1-.2-1.2-.2-.5-.1-.4-.1-2.2-.3-.5-.1-2.7-.3h-.7c-.7-.1-1.4-.1-2-.1h-.7c-.9 0-1.8-.1-2.7-.1h-5.4c-.3 0-.7 0-1 .1l-.9.1-1 .1h-.4l-.8.1h-.3c-.5.1-1.1.1-1.5.2l-.4.1-1.3.2-.3.1-1.2.3-.3.1c-.5.1-.9.2-1.3.3h-.2l-.5.1-1.2.3-.6.2-.7.4-.6.2-1.8.9-.3.2-.2.1c-.2.1-.4.2-.5.3l-.5.3c-.2.1-.3.2-.5.4l-.6.4-70.9 57c.1-.1.3-.2.4-.3-4.7 3.5-5.7 8.5-1.9 14.1l-4.8.6c-14 2.1-22.7 10.4-37.6 12.4-12.4 1.8-27.7-.2-32.1 9.7zm159.5-18.1c.1.1.1.3.2.4a.76.76 0 0 0-.2-.4zm.6 1.1l.2.5-.2-.5zm.8 2.5c0-.2 0-.3-.1-.5 0 .2.1.3.1.5zm-3.1 8.7l.4-.3-.4.3zm.8-.7c.1-.1.2-.2.3-.4-.1.1-.2.2-.3.4zm.7-.8c.1-.1.2-.2.3-.4-.1.1-.2.3-.3.4zm.5-.8a.76.76 0 0 0 .2-.4.76.76 0 0 1-.2.4zm.5-.8l.2-.4-.2.4zm.4-.9c0-.1.1-.3.1-.4 0 .1-.1.3-.1.4zm.2-.9c0-.1.1-.3.1-.4 0 .1 0 .3-.1.4zm.2-.9v-.5.5zm.1-1v-.5.5zm-.1-1v-.5.5zm-.6-2.4c0 .1.1.3.1.5 0-.2 0-.4-.1-.5zm-1.4-2.9c-.1-.1-.1-.2-.2-.4 0 .2.1.3.2.4zm-1-1.4l-.9-1c.3.4.6.7.9 1zm-1.2-1.4c-.2-.2-.4-.5-.6-.7.2.3.4.5.6.7zm-1.1-1l-.2-.2.2.2zm-5-4.3l-.4-.3.4.3zm-6.9-4.2l-.3-.1.3.1zm-2-1l-.4-.2.4.2zm-5.6-2.5l-.7-.3.7.3zm-4.1-1.5l-.2-.1.2.1zm-2.6-.9l-.5-.1.5.1zm-4.9-1.5l-.4-.1.4.1zm-5.6-1.3l-.5-.1.5.1zm-1.7-.4zm-2.9-.5l-.4-.1.4.1zm-5.1-.7zm-9-.6zm-5 .1zm-2 .1zm-3.6.4l-.8.1.8-.1zm-1.8.3l-.8.1h.1l.7-.1zm-1.6.3l-.7.2h.1l.6-.2zm-1.5.4c-.2.1-.5.1-.7.2h.1l.6-.2zm-1.5.4l-.3.1.3-.1zm-1.4.5l-.3.1.3-.1zm-1.3.5l-.3.1.3-.1zm-1.2.5l-.3.2.3-.2zm-1.1.6l-.3.2c.1-.1.2-.2.3-.2zm-1.4.8l.3-.2-.3.2zm13.7-4.4l.9-.1-.9.1z" fill="url(#J)"/></g><ellipse transform="matrix(.9202 -.3915 .3915 .9202 -150.6619 39.0082)" cx="20.3" cy="388.9" rx="1.2" ry="2.2" fill="#7493a8"/><path d="M186.5 253.9L81.6 314.4l-3.5-1.1.1-29.8 108.5-62.4zm-109 59.6l-3 4.6-29.4 17v-32.7l32.6-18.9z" class="Y"/><path d="M186.6 254l-105 60.4-3.5-1.1-.1-5.3 108.8-62.8zm-109 59.5l-2.7 4.3-30.1 17.3v-8.2l32.7-18.8z" class="g"/><path d="M186.6 221.1l1.2-19-107.7 62-2.2 4.6.3 14.8zM77.7 283.7l-.3-14.8-1.6-1.7-30.7 17.9-.1 17.3z" class="l"/><path d="M47.2 316.2l21.6-12.3.1 4.5L47.2 321z" class="h"/><path d="M46.9 305.5l21.4-11.7-.2 2-21.2 11.4z" class="a"/><path d="M47.1 310l18.7-10.3.1 4.1-18.8 10.3zm115.6-58l21.5-12.4.1 4.6-21.6 12.5zm-.1-6.3l18.7-10.3.1 4.1-18.8 10.4z" class="h"/><path d="M117.7 212.6l.1 18.6-82.4 47.9-.1-18.6zm60.9-34.9l.1 18.6-59 33.9v-18.6z" fill="none" stroke="#92aabb" stroke-width=".5" stroke-miterlimit="10"/><path d="M182.5 175.8l15.8-9.1.1 18.1-15.8 9.1-.1-18.1zm10.2 4l.7-1.2-.7-.4-1.7-.9-.7 1.2 1.2.6-4 2.3v1.2l3.9-2.3-1.2 2 .7.4 1.8-2.9" class="g"/><path d="M191 177.3l1.7.9.7.4-.7 1.2-1.7 2.9-.7-.4 1.2-2-4 2.3v-1.2l4-2.3-1.2-.6z" class="m"/><path d="M158.3 195.7l1.2-.7v1.4l-6.4 3.7v-1.3l1.1-.7v-1l.9-.5v1l2.4-1.4-.1-1 .9-.5zm-5.2 9.2v-4l6.4-3.7v4a1.1 1.1 0 0 1-.6 1l-5.3 3c-.2.1-.4.1-.5-.1v-.2zm2.6-2.9v1.3l1.2-.7v-1.3l-1.2.7m0-2v1.3l1.2-.7v-1.4l-1.2.8m-1.7 3v1.3l1.2-.7v-1.3l-1.2.7m0-2v1.3l1.2-.7v-1.3l-1.2.7m3.5-2v1.3l1.2-.7v-1.3l-1.2.7M45.2 261.1c.5.4.8 1 .7 1.6 0 1-.4 2-.9 2.8-.4.8-.9 1.5-1.4 2.2l-.2.2h-.2l-1.4-.6c-.6-.3-1-1-.9-1.8 0-.9.3-1.7.7-2.5s1-1.4 1.8-1.9c.5-.2 1.2-.2 1.8 0zm-1.8 4.3a2.45 2.45 0 0 0 1.1-1.8c0-.3-.1-.5-.3-.7-.2-.1-.5-.1-.7.1a2.45 2.45 0 0 0-1.1 1.8c0 .6.4.9 1 .6m157.2 174.9c1.5-.7 2.8-1.7 3.9-2.9.6-.6.6-1.6 0-2.3-.6-.6-1.6-.6-2.3 0-.9 1-2 1.8-3.2 2.4-1.9 1-.2 3.8 1.6 2.8z" class="V"/><linearGradient id="K" gradientUnits="userSpaceOnUse" x1="463.24" y1="297.575" x2="690.04" y2="297.575"><stop offset="0" stop-color="#92aabb" stop-opacity="0"/><stop offset=".32" stop-color="#92aabb"/></linearGradient><path d="M690 311.9l-88.2 51.3-138.6-80 88.3-51.3z" fill="url(#K)"/><path d="M695.9 294.2l-88.2 51.3-138.6-80 88.3-51.3z" class="k"/><path d="M695.9 294.2v4.8l-88.2 51.3v-4.8z" class="V"/><path d="M607.7 345.5v4.8l-138.6-79.9v-4.9z"/><g fill="#92aabb"><path d="M587.7 280.4c-.1.1-.2.1-.2.2-.1.1-.2.1-.3.1-7.2 4.1-16.7 6.1-26.2 5.8h-.3c-8.1-.3-16.1-2.2-22.3-5.8s-9.6-8.2-10.1-12.9v-.2c-.5-5.5 2.8-11.1 10-15.2 7.4-4.2 16.9-6.1 26.3-5.8h.3c8.1.3 16.1 2.2 22.3 5.8s9.6 8.2 10.1 13v.1c.4 5.3-2.7 10.7-9.6 14.9zm-2.4-26.4l-8.7 5c3.5 2 6.7 4.5 9.5 7.3 2.5-.8 5-1.4 7.6-1.8-.7-3.8-3.3-7.4-8.4-10.5m-44 25.5c5.6 2.9 11.8 4.5 18.1 4.8.9-1.6 2-3 3.3-4.3-4.4-1.4-8.7-3.2-12.8-5.5l-8.6 5m33-21.9l8.7-5c-5.5-2.6-11.4-4.1-17.5-4.4-.8 1.6-1.9 3.1-3.1 4.4 4.1 1.3 8.1 3 11.9 5M539 278.2l8.7-5c-3.2-1.9-6.2-4.3-8.8-6.9-2.4.8-4.9 1.4-7.5 1.9.7 3.6 3.2 7.2 7.6 10m35.2-17.8l-9.9 5.7 9.7 5.6c2.9-1.7 5.9-3.1 9-4.3-2.5-2.7-5.5-5.1-8.8-7m-12.1 7.2l-9.8 5.6c3.8 2.2 7.8 4 12 5.3 2.3-2 4.8-3.8 7.4-5.3l-9.6-5.6m0-2.7l9.9-5.8c-3.6-1.9-7.5-3.5-11.4-4.6-2.1 2-4.5 3.9-7 5.4l8.5 5m-12 6.9l9.7-5.7-8.5-4.9c-3 1.6-6.2 3-9.5 4.1 2.5 2.6 5.3 4.7 8.3 6.5m-1.2-12l-9.5-5.5c-2.3 2-2 5.6.9 9.4 3-1.1 5.9-2.4 8.6-3.9m18.5 19.6c6.6 1.7 12.8 1.9 16.2.5l-9.5-5.5c-2.3 1.5-4.6 3.1-6.7 5m18.5-.9c2.1-2.1 1.6-5.5-1.2-9.2-2.8 1-5.6 2.3-8.2 3.7l9.4 5.5m-28.3-24.8c-6.3-1.6-12.2-1.9-15.8-.7l9.4 5.4c2.3-1.3 4.4-2.9 6.4-4.7m5.6 30.9c4.6 0 9.3-.6 13.7-1.9-3.7-.1-7.4-.7-11-1.7a24.16 24.16 0 0 0-2.7 3.6m30.8-17.9c-2.1.4-4.2.9-6.2 1.6a11.76 11.76 0 0 1 2.9 6.4c2.1-2.2 3.2-5.1 3.3-8m-59.3-8.4c-2 2.2-3.1 5-3.2 8 2.1-.4 4.2-.9 6.2-1.6-1.6-1.8-2.6-4-3-6.4m27.7-10c-4.6 0-9.3.6-13.7 1.9 3.7.1 7.4.7 11 1.7a24.16 24.16 0 0 0 2.7-3.6m42.2 70.4l-2-1.2 49.5-28.5 1.9 1.1z"/><path d="M598.8 314.7l-2-1.2 49.5-28.6 2 1.2z"/></g><path d="M586.4 229.6l-5.9-15.3 66-1.2 24.7 67.2z" class="c"/><path d="M574 222l107.2 51.8-9.7 6.8-98.7-57.7z" class="h"/><use xlink:href="#AE" class="a"/><ellipse transform="matrix(.002793 -1 1 .002793 231.5052 549.6622)" cx="391.4" cy="158.8" rx="28" ry="48.3" class="h"/><ellipse transform="matrix(.002793 -1 1 .002793 231.3257 549.0812)" cx="391" cy="158.6" rx="22.4" ry="38.6" fill="#7e93a1"/><linearGradient id="L" gradientUnits="userSpaceOnUse" x1="342.69" y1="227.83" x2="439.695" y2="227.83"><stop offset=".31" stop-color="#f1f4f7" stop-opacity="0"/><stop offset=".65" stop-color="#f1f4f7" stop-opacity=".75"/><stop offset=".8" stop-color="#f1f4f7"/><stop offset=".84" stop-color="#f1f4f7" stop-opacity=".8"/><stop offset=".92" stop-color="#f1f4f7" stop-opacity=".37"/><stop offset=".97" stop-color="#f1f4f7" stop-opacity=".1"/><stop offset="1" stop-color="#f1f4f7" stop-opacity="0"/></linearGradient><use xlink:href="#AE" fill="url(#L)"/><path d="M366.9 149c15-8.8 39.5-8.8 54.6 0 3.1 1.7 5.9 4.1 8.1 6.9-.7-5.2-4.5-10.2-11.3-14.1-15.1-8.7-39.6-8.7-54.6 0-11.5 6.7-14.2 16.6-8 24.8-.7-6.4 3-12.8 11.2-17.6z" class="l"/><path d="M363.8 174.8c15.1 8.7 39.6 8.7 54.6 0 8.8-5.1 12.4-12.1 10.9-18.8-.2-.3-.5-.6-.8-.9-1.2-1-2.6-1.6-4.1-1.9l-.7-.2c.1 0 0-.1 0-.1-.2-.3-.6-.9-.6-1-.9-1.6-3-2.2-4.6-1.3-.1.1-.3.2-.4.3l-.3-.3c-1.2-1.1-1.4-.7-2.8-1.2-.9-.4-1.7-1-2.4-1.8-.8-.5-1.7-.9-2.7-1.1a7.08 7.08 0 0 0-2.9 0l-.3-.2c-1.3-.8-1.8-1.6-3.7-1.4s-2.6 2.9-4.4 2.1c-1.1-.4-.5-2.1-2.6-1.5-1 .3-2 1.6-2.9 2.2-.2.2-.4.3-.7.4l-8 .5 6.3-.4c-.6-.4-1.1-1.3-2.5-1.3s-3.6 1.7-5 2.1a4.53 4.53 0 0 1-1.6.3c-2.1 1-4 2.5-4.6.2-2.8-.6-4.9 1-7.6 1.2h-1.6c-.9.3-1.8.6-2.8 1-.3.6-.6 1.2-1 1.7s-1 .9-1.6 1.1c-1.6.8-2.4 1.1-3.3 2.7a9.45 9.45 0 0 1-2.1 3.1c-.3.4-.6.9-.9 1.3-.4 1.6-.5 3.3-.3 5-.7-1-1.4-2-1.9-3.1-.2.1-.3.2-.5.4 1.7 4.2 5.1 7.9 10.4 10.9z" fill="#1e2931"/><use xlink:href="#AF" fill="#11b19b"/><path d="M384.8 175.3c1.8-.3 3.6-1.9 5.3-1.9 1.5 0 2.7 1.9 4.2 2.6 2.1 1 4.3.7 6.5.8 2.6.1 5.2.7 7.8.7 4.6.1 4.6-7 0-7.1-2.8 0-5.5-.6-8.3-.7-1.1 0-2.3.3-3.3-.3-.7-.5-1.4-1.1-2-1.8-4.3-3.2-7.8.1-12.1.8s-2.6 7.6 1.9 6.9z" fill="#1e2931"/><path d="M408.9 165.5c1 .1 1.8-.7 1.9-1.6.1-1-.7-1.8-1.6-1.9s-1.8.7-1.9 1.6v.3c0 .8.7 1.5 1.6 1.6zm9.7-7.4c1 .1 1.8-.7 1.9-1.6.1-1-.7-1.8-1.6-1.9s-1.8.7-1.9 1.6v.3c.1.9.8 1.6 1.6 1.6zm-18.8 16.2c1 .1 1.8-.7 1.9-1.6.1-1-.7-1.8-1.6-1.9s-1.8.7-1.9 1.6v.3a1.58 1.58 0 0 0 1.6 1.6zm12.6-1.5c1 .1 1.8-.7 1.9-1.6.1-1-.7-1.8-1.6-1.9s-1.8.7-1.9 1.6v.3c.1.9.8 1.6 1.6 1.6zm-41.6-11.6c1 .1 1.8-.7 1.9-1.6.1-1-.7-1.8-1.6-1.9s-1.8.7-1.9 1.6v.3c0 .9.7 1.5 1.6 1.6zm.8 10.2c1 .1 1.8-.7 1.9-1.6.1-1-.7-1.8-1.6-1.9s-1.8.7-1.9 1.6v.3c.1.8.8 1.5 1.6 1.6zm9-4.9c1 .1 1.8-.7 1.9-1.6.1-1-.7-1.8-1.6-1.9s-1.8.7-1.9 1.6v.3c.1.9.7 1.6 1.6 1.6z" class="b"/><linearGradient id="M" gradientUnits="userSpaceOnUse" x1="342.69" y1="227.83" x2="439.695" y2="227.83"><stop offset="0" stop-color="#92aabb"/><stop offset=".8" stop-color="#f1f4f7" stop-opacity="0"/><stop offset="1" stop-color="#f1f4f7" stop-opacity="0"/></linearGradient><use xlink:href="#AE" fill="url(#M)"/><path d="M414 101.9c2.6-7.2 13.2-13 19.6-16.5 3.4-1.8 6.7-5 10.5-5.8 2.7-.6 5.5.4 8.3.5 2.5.1 5.1.2 7.4-1 1.3-.7 5.6-4.4 4.9-6.2 6.4 15.3-8 20.3-16.4 28.7-10 10-8.7 25.3-17.9 35.1-6.1 6.4-14.3 11.5-20.1 18-3.3 3.7-8.3 13.1-15.4 9.3-.3-5.1 3.3-10.5 5-15.2 3.4-9.4 1.8-19.4 5.5-29 2.5-6.3 6.3-11.5 8.6-17.9z" fill="#1ecab2"/><linearGradient id="N" gradientUnits="userSpaceOnUse" x1="361.809" y1="21.337" x2="436.755" y2="151.125"><stop offset=".57" stop-color="#1ecab2" stop-opacity="0"/><stop offset="1"/></linearGradient><use xlink:href="#AF" fill="url(#N)"/><path d="M402.7 362.8l-108.3 62.9-138.5-79.9 108.3-63z" class="a"/><path d="M402.7 362.8v4.8l-108.3 62.9v-4.8z" class="W"/><path d="M294.4 425.7v4.8l-138.6-79.9.1-4.8z" class="i"/><path d="M400.5 350l-108.4 63-138.5-80 108.3-62.9z" class="c"/><path d="M400.5 350l-.1 4.8-108.3 63V413z" class="W"/><path d="M292.1 413v4.8l-138.5-80V333z" class="i"/><path d="M290.3 414.1v18.8L152 352.7v-18.8z" class="Z"/><path d="M290.3 414.1l4.2-2.5-.1 18.9-4.1 2.4z" class="W"/><path d="M152 333.9l4.2-2.4 138.3 80.1-4.2 2.5z" class="c"/><path d="M396.5 357.2l.3 7.2-102.5 59.8.3-7.9z" class="m"/><linearGradient id="O" gradientUnits="userSpaceOnUse" x1="346.246" y1="390.692" x2="344.306" y2="387.342"><stop offset="0" stop-color="#92aabb" stop-opacity="0"/><stop offset=".8" stop-color="#92aabb"/></linearGradient><path d="M396.3 357.3l-.1 4.4-102 59 .2-4.3z" fill="url(#O)"/><path d="M368.6 315.1L260.2 378l-138.5-80 108.4-62.9z" class="a"/><path d="M368.6 315.1v4.8l-108.4 62.9V378z" class="W"/><path d="M260.2 378v4.8l-138.5-79.9V298z" class="i"/><path d="M366.3 302.3l-108.4 63-138.5-80 108.4-63z" class="c"/><path d="M366.3 302.3v4.8l-108.4 63v-4.8z" class="W"/><path d="M257.9 365.3v4.8l-138.5-80v-4.8z" class="i"/><path d="M256.2 366.4l-.1 18.8L117.8 305l.1-18.9z" class="Z"/><path d="M256.2 366.4l4.1-2.5v18.9l-4.2 2.4z" class="W"/><path d="M117.9 286.1l4.1-2.4 138.3 80.2-4.1 2.5z" class="c"/><path d="M362.4 309.5l.3 7.2-102.5 59.8.3-7.9z" class="m"/><linearGradient id="P" gradientUnits="userSpaceOnUse" x1="312.088" y1="342.981" x2="310.158" y2="339.631"><stop offset="0" stop-color="#92aabb" stop-opacity="0"/><stop offset=".8" stop-color="#92aabb"/></linearGradient><path d="M362.2 309.6l-.1 4.4-102 59 .2-4.3z" fill="url(#P)"/><linearGradient id="Q" gradientUnits="userSpaceOnUse" x1="118.46" y1="352.91" x2="365.49" y2="352.91"><stop offset="0" stop-color="#0c4266" stop-opacity="0"/><stop offset=".9" stop-color="#4c0e00" stop-opacity=".6"/></linearGradient><path d="M130.7 312.7l-12.2 7 33.7 18.5-.2-4.3 4.2-2.4L263 393.1l102.5-63.2-7.1-4.1-102.2 59.6z" fill="url(#Q)"/><g class="g"><path d="M418.7 89.2l.1-.1-.1.1zm.5-.4l.2-.1-.2.1zm.5-.3l.3-.1-.3.1zm.7-.4l.2-.1-.3.1h.1zm.6-.2l.3-.1-.3.1z"/><path d="M421.7 87.7z"/><path d="M422.3 87.6z"/><path d="M423 87.5z"/><path d="M416.9 91.8l.1-.2v-.1c-.1.2-.1.3-.1.3zm.3-.7c0-.1 0-.1 0 0-.1 0-.1.1-.1.2 0-.1.1-.2.1-.2zm.3-.5l.1-.1-.1.1zm.4-.5c0-.1.1-.1.1-.1l-.1.1zm-1.2 2.3v-.3.3zm1.5-2.7c.1-.1.2-.1.2-.2l-.2.2zm36-6.9c-.5-1.6-1.9-2.9-2.6-4.5-.3-1-.7-1.9-1.3-2.8l-.3-.2-.1-.1h-.1l-.9-.3-.4-.1h-2.7l-.8.2h-.4l-.4.1h-.2l-.4.2-.1.1h-.1l-.5.2-.6.3c-.1.1-.3.2-.4.3l-.5.5-.1.2-.3.3-.1.2-.2.3-.1.2-.2.3-.1.2c0 .1-.1.2-.1.3s0 .1-.1.2-.1.3-.1.4v.2c0 .2-.1.4-.1.6l-1 8.1V88c0 .1-.1.3-.1.4-.3 3.5 2.8 6.7 6.9 7s7.6-2.2 7.9-5.7v.3l.6-7.2z"/></g><g class="c"><path d="M448.2 88c0-.2 0-.3.1-.4v.2l1-8.1c0-.2.1-.4.1-.6v-.2c0-.1.1-.3.1-.4s0-.1.1-.2l.1-.3.1-.2.2-.3c0-.1.1-.1.1-.2.1-.1.1-.2.2-.3l.1-.2.3-.3.1-.2c-.1-.3-.3-.5-.5-.8l-.4-.2-.1-.1h-.1l-.9-.3-.4-.1h-.2c-.2 0-.4-.1-.6-.1h-2.3l-.4.1h-.4l-.4.1h-.2l-.4.2-.1.1h-.1l-.5.2-.1.1a.76.76 0 0 1-.4.2l-.4.3-.5.5-.1.2-.3.3-.1.2-.4.5-.1.2c-.1.1-.1.2-.2.3 0 .1-.1.1-.1.2s-.1.2-.1.3 0 .1-.1.2c0 .1-.1.2-.1.4v.2c0 .2-.1.4-.1.6l-1 8.1V88v.4c-.3 3.5 2.8 6.7 6.9 7 2.1.2 4.2-.4 5.8-1.8-2.2-1-3.4-3.2-3.2-5.6z"/><path d="M438.7 87.8v-.4c.1.2.1.3 0 .4z"/><path d="M438.9 87.2l.1-.2v-.1c0 .1-.1.2-.1.3zm.3-.6c0-.1 0-.1.1-.2v-.1c-.1.1-.1.2-.1.3zm.3-.6l.1-.2-.1.2zm.3-.5l.2-.2-.2.2zm.4-.5l.2-.2c0 .1-.1.1-.2.2zm.5-.4l.1-.1-.1.1zm.5-.4l.2-.1-.2.1zm.5-.3l.3-.1-.3.1zm.6-.4h.1l.2-.1-.3.1zm.7-.2l.3-.1-.3.1zm.6-.2l.4-.1-.4.1z"/><path d="M445.8 82.8z"/></g><g class="X"><path d="M453.7 90v-.8c0-.1 0-.3-.1-.4v-.4l-.1-.4c0-.1-.1-.2-.1-.3s-.1-.1-.1-.2v-.2c-.1-.1-.1-.3-.2-.4l-.1-.1c0-.1-.1-.2-.1-.2l-.2-.4-.1-.1-.1-.2-.2-.3-.2-.2c-.2-.2-.4-.4-.6-.5h-.1c-.2-.2-.5-.3-.8-.5l-.8-.4-.1-.1h-.1l-.9-.3-.5-.1h-.2l-.6-.1h-2l-.8.2h-.4l-.4.1h-.2l-.4.2-.1.1h-.1c-.2.1-.3.2-.5.2l-.1.1c-.1.1-.3.2-.4.3l-1 .4-.2.2c-.1.1-.2.2-.4.3l-.1.2-.3.3-.1.2-.2.3-.1.2-.2.3-.1.2c0 .1-.1.2-.1.3s-.1.2-.1.2c0 .1-.1.3-.1.4v.2c0 .2-.1.4-.1.6l-.4 3v-.2c0 .2-.1.3-.1.5-.3 3.7 3 7 7.2 7.5s8-2.3 8.3-6.1v.4l.4-3v-.8l-.6-.2zM418 92.8l.1-.1-.1.1zm.6-.4l.2-.1-.2.1zm.5-.4l.3-.1-.3.1zm.7-.3l.2-.1-.3.1h.1zm.6-.3l.3-.1-.3.1zm.7-.2l.3-.1-.3.1zm1.1-.2l-.5.1.5-.1zm-6.1 4.6l.1-.2v-.1c0 .1-.1.2-.1.3zm.3-.8l-.1.2c0-.1.1-.2.1-.2zm.4-.6l.1-.1c-.1.1-.2.1-.1.1zm.3-.5l.1-.2-.1.2z"/><path d="M415.9 96.2v-.3c0 .1-.1.2 0 .3-.1.1 0 0 0 0zm1.6-2.9l.2-.2-.2.2z"/></g><linearGradient id="R" gradientUnits="userSpaceOnUse" x1="412.723" y1="252.664" x2="388.855" y2="223.081"><stop offset="0" stop-color="#e8f0f5" stop-opacity="0"/><stop offset=".91" stop-color="#0c4266"/></linearGradient><path d="M417.7 242.9l-17.3 11.4-.7-29.7 17.7 6.2z" fill="url(#R)" class="U"/><linearGradient id="S" gradientUnits="userSpaceOnUse" x1="381.21" y1="231.491" x2="417.722" y2="159.295"><stop offset="0" stop-color="#1d2d37" stop-opacity="0"/><stop offset=".9"/></linearGradient><path d="M392.2 217.4l.8-32.6-9.1-4 10.2-5.9 43.3 16.1z" fill="url(#S)" class="U"/><path d="M416.4 207.9l3.6-4.3 9.5 5.7-3.6 4.4z" class="Y"/><use xlink:href="#AK" class="j"/><path d="M434.3 214.9v-.1c0-.1 0-.2-.1-.2l-.1-.2c0-.1-.1-.2-.1-.2l-.3-.6v-.3l-.2-.2-.1-.2-.4-.4c0-.1-.1-.1-.1-.2l-.3-.3v-.1l-1.3-1.3-.3-.2-.6-.3-.1-.1-.3-.2-.1-.1-3.6 4.3.5.4.2.1.6.4.4.4.5.4.5.5c.1.2.3.3.4.5s.3.3.4.5l.3.5v.1l.3.5c.1.2.2.4.3.5.1.2.1.3.2.5a.9.9 0 0 1 .1.5c0 .2.1.3.1.5v1.1c0 .1 0 .2-.1.4l3.6-4.3v-2.2c0-.1 0-.2-.1-.2v-.1l-.2-.1z" class="Y"/><use xlink:href="#AG" class="d"/><g class="e"><path d="M416.1 155c1-.2 2.1 0 3 .5l8.5-5.4c-.9-.5-2-.7-3-.5-.6.2-1.2.5-1.7.9l-7.6 4.9c.3-.2.6-.3.8-.4zm3.1.5l8.5-5.4 8.4 4.4 22.6 11.8-8.5 5.5z"/><path d="M463.9 172.7c-.9-2.7-2.7-5-5.2-6.4l-8.5 5.5c2.2 1.3 3.9 3.3 4.9 5.6.9 2 1.6 5.5-.6 6.9l5-3.2 2.9-1.9a3.51 3.51 0 0 0 1.7-1.9c.5-1.5.4-3.1-.2-4.6z"/></g><g class="X"><use xlink:href="#AH"/><path d="M439.5 182.8l7.9 7.9s8.9-6.2 9.3-8.4c1.1-5.7-6.6-10.8-6.9-10.1-2.6 5.5-10.3 10.6-10.3 10.6z"/><path d="M409.6 148.5s-5.4 7.9-.5 15c5.3 7.6 34.3 16.5 34.3 16.5l-17.6-20.8c0-.1-16-10.7-16.2-10.7z"/></g><path d="M400.8 220.4l3.6-4.3 9.6 5.7-3.6 4.3z" class="Y"/><use xlink:href="#AK" x="-15.6" y="12.5" class="j"/><path d="M418.8 227.4v-.1c0-.1-.1-.2-.1-.2l-.5-1v-.1l-.1-.1-.1-.2c0-.1-.1-.1-.1-.2s-.1-.1-.2-.2l-.2-.2c0-.1-.1-.1-.1-.2l-.3-.3v-.1l-.4-.4-.2-.1-1.1-1.1-.4-.2-.1-.1-.3-.2-.1-.1-3.6 4.3.5.4.2.1.3.2.7.7.5.4.5.5c.1.2.3.3.4.5l.4.5c.1.2.2.3.3.5s.2.3.3.5.2.4.3.5c.1.2.1.3.2.5 0 .2.1.3.1.5s.1.3.1.5v1.2c0 .1 0 .2-.1.4l3.6-4.3v-2.4l-.1-.2v-.1l-.3-.1z" class="Y"/><use xlink:href="#AG" x="-15.5" y="12.5" class="d"/><g class="e"><path d="M400.6 167.5c1-.2 2.1 0 3 .5l8.5-5.5c-.9-.5-2-.7-3-.5-.6.2-1.2.5-1.7.9l-7.6 4.9c.2-.1.5-.2.8-.3z"/><path d="M403.6 168l8.6-5.4 8.4 4.4 22.6 11.8-8.6 5.4zm44.8 17.2c-.9-2.7-2.7-5-5.2-6.4l-8.5 5.4c2.2 1.3 3.9 3.3 4.9 5.7.9 2 1.6 5.5-.6 6.9l5.1-3.2 2.9-1.9c.8-.4 1.4-1.1 1.8-1.9.3-1.5.2-3.1-.4-4.6z"/></g><use xlink:href="#AH" x="-15.6" y="12.4" class="X"/><path d="M420.9 162.8l22.3 16.4-36.3-16-4.9 3.4-7.8-5.6s5.4-6.7 12.4-9.3c3.7-1.4 10.9-.8 10.9-.8l3.4 11.9z" class="e"/><g class="X"><path d="M423.9 195.3l7.9 7.9s8.9-6.2 9.3-8.4c1.1-5.7-6.6-10.8-6.9-10.1-2.6 5.4-10.3 10.6-10.3 10.6z"/><path d="M394 160.9s-5.4 7.9-.4 15c5.3 7.6 34.3 16.5 34.3 16.5l-17.6-20.8-16.3-10.7z"/></g><path d="M452.6 95.1v-.7c0-.1 0-.2-.1-.3s0-.1 0-.1v-.2c0-.1-.1-.2-.1-.3v-.2c0-.1-.1-.1-.1-.2s-.1-.2-.1-.3c-.1-.1-.1-.2-.2-.3l-.3-.3c0-.1-.1-.2-.2-.2l-.6-.6c-.1-.2-.3-.3-.5-.4l-.1-.1-.2-.1-1.5-1-.6-.2h-.3l-.5-.1h-.8l-.5-.1h-2.5l-.4.1h-.4l-.4.1c-.1 0-.2.1-.3.1l-.2.1-.1.1h-.1l-.3.2h-.1l-.5.3c-.2.1-.4.3-.5.4l-.8.8-.1.2-.2.3-.1.2-.2.3-.1.2c0 .1-.1.2-.1.3l-.1.2c0 .1-.1.3-.1.4v.2c-.1.2-.1.4-.1.6l-23.5 195.4c0 .1 0 .3-.1.4-.3 3.5 2.8 6.5 6.8 6.9s7.5-2.1 7.8-5.6v.2l23.3-195.9v-.2l.1-.6zm-35.7 191l-.2.2.2-.2zm.4-.3l.2-.1-.2.1zm.5-.3l.3-.1-.3.1zm.7-.4l.2-.1-.2.1zm.5-.1l.3-.1-.3.1zm.7-.2l.3-.1-.3.1zm.7-.2zm.6 0zm-6 4.2c0-.1.1-.1.1-.2v-.1c0 .2-.1.3-.1.3zm.3-.7v-.1l-.1.3.1-.2zm.3-.5l.1-.1-.1.1zm.3-.5l.1-.1-.1.1zm-1 2.3v-.3c0 .1-.1.2 0 .3-.1 0-.1 0 0 0zm1.4-2.7l.2-.2-.2.2z" class="c"/><g class="W"><path d="M425.5 284.5l.3-.1-.3.1z"/><path d="M426.9 284.3z"/><path d="M426.2 284.4z"/><path d="M423.6 285.3l.3-.2-.2.1-.1.1zm-2 1.9l-.2.2.2-.2zm-.4.5s0 .1 0 0l-.1.2.1-.2zm-.6 2.2c0-.2 0-.3.1-.5v.2L443.9 94c0-.2.1-.4.1-.6v-.2c0-.1.1-.2.1-.4 0-.1 0-.2.1-.2l.1-.3c0-.1.1-.1.1-.2s.1-.2.2-.3l.1-.2.2-.3.1-.2.8-.8c.2-.1.3-.3.5-.4s.3-.2.5-.3h.1l.3-.2.3-.3-.3-.1h-.3l-.5-.1h-3.5l-.4.1h-.4c-.1 0-.3.1-.4.1l-.3.1-.2.1-.2.2-.3.2h-.1c-.2.1-.3.2-.5.3s-.4.3-.5.4l-.8.8-.1.2c-.1.1-.1.2-.2.3l-.1.2-.2.3c0 .1-.1.1-.1.2l-.1.3c0 .1 0 .2-.1.2-.1.1-.1.2-.1.4v.2c0 .2-.1.4-.1.6l-23.5 195.5v-.2c0 .2 0 .3-.1.5-.3 3.5 2.8 6.5 6.8 6.9 1.3.1 2.6-.1 3.9-.6-2.5-.9-4.3-3.5-4.2-6.3zm0-5.6zm-6.2 4.9v-.3.3zm.2-.6l.1-.2v-.1c-.1.1-.1.2-.1.3zm.2-.6l.1-.2v-.1l-.1.3zm.3-.6l.2-.2-.2.2zm.4-.5c.1-.1.1-.2.2-.2l-.2.2zm.4-.4l.2-.2-.2.2zm.4-.4l.2-.1-.2.1zm.5-.5l.2-.1-.2.1zm.5-.3l.3-.1-.3.1zm.7-.3l.3-.1-.3.1zm.6-.2l.3-.1-.3.1zm.7-.2l.3-.1-.3.1z"/><path d="M422 286.7l-.2.2c0-.1.1-.1.2-.2zm-1.3 2.5c0-.1 0-.2.1-.3s0 0 0 .1l-.1.2c0-.1 0-.1 0 0zm.2-.6c0-.1.1-.2.1-.3v.1s-.1.1-.1.2zm3.7-3.7l-.2.1h-.1l.3-.1zm-2.2 1.3l-.2.2v.1l.2-.3zm2.8-1.6l-.3.1.3-.1zm-1.8.9l-.2.1.2-.1zm-.6.4l-.2.1.2-.1z"/></g><use xlink:href="#AI" class="n"/><linearGradient id="T" gradientUnits="userSpaceOnUse" x1="413.916" y1="289.468" x2="427.526" y2="300.878"><stop offset="0" stop-color="#ffdcd0" stop-opacity="0"/><stop offset=".76" stop-color="#ff9e7c"/></linearGradient><use xlink:href="#AI" fill="url(#T)"/><path d="M419.5 306.1c.6-.9 1.7-1 2.4-.5.2.1.3.3.4.5l-1.1 3.8-.7.8-.8-.9-.2-3.7z" class="X"/><path d="M425.184 280.78L447.56 91.496l.596.07L425.78 280.85zm3.562 2.586L451.122 94.08l.596.07-22.376 189.285z" class="U W"/><path d="M419.485 280.784L441.862 91.5l.596.07-22.376 189.285zm-3.768 2.3L438.093 93.8l.596.07-22.376 189.285z" fill="#4c0e00" class="U"/><linearGradient id="U" gradientUnits="userSpaceOnUse" x1="419.251" y1="273.096" x2="455.482" y2="62.107"><stop offset="0" stop-color="#1d2d37" stop-opacity="0"/><stop offset=".9"/></linearGradient><path d="M444.1 167l-3.4 27.6-14.5-4 5.6-47.3z" fill="url(#U)" class="U"/><g class="d"><path d="M439.6 174.7c-.1-.9 3.3-5.3 3.3-5.3s-9.5-11.9-12.9-33.2c-.9-5.5 1.3-3.6 1.3-3.6l4.5-1.7 10.4 39.2.5 9.1-1.6.5c-2.8.7-5.1-2.1-5.5-5z"/><path d="M442.9 169.4l-4.7 1.4c.4 1.3 1.7 2.1 3 1.7s2.1-1.7 1.7-3.1z"/></g><g class="Y"><path d="M435.9 131.6l3 9.6-6.9 5.4-3-1.3z"/><path d="M434.9 127.6c1.9 4.2 5.4 12.6 5.4 12.6l-10 8.6-9.4-24.6c0 .1 9-7.5 14 3.4z"/></g><path d="M429 145.3l2.3-12.8 2.8 12.3-2.1 1.8z" class="n"/><path d="M415.2 140.8l17.4-11.8-4.3 24.7-21.2 15.9z" class="Y"/><path d="M407 130c3.9.9 7.2 3.6 8.7 7.3.4.9.4 1.9.2 2.9l-.9 3.3-1.8 6.7c-.6 2.2-6 19.4-6 19.6l-13.8-7.9c.4-1.5 5.2-15.4 5.6-16.9l2.6-9.2.6-2.3.3-1.1c.1-.3.2-.6.4-.9.8-1.2 2.3-1.8 3.7-1.5h.4z" class="n"/><path d="M432.3 126.1c-.4-1.1-1-2.2-1.7-3.1s-1.5-1.7-2.4-2.3c-1.6-1.3-3.5-2-5.5-2.2-1.1 0-17.5 9.9-19.1 11.8l-.6.7c.8-.8 2-1.2 3.2-1.1s2.4.5 3.5 1.1 2.2 1.3 3.1 2.1c1 .9 1.8 1.9 2.4 3.1.6 1.1.9 2.3.8 3.5 0 .2-.1.3-.1.5.9-1.1 6.2 1.1 7.1 0l2.8-3.4 5.6-6.6.7-.8c.2-.2.4-.4.5-.7.1-.6.1-1.3 0-1.9-.2-.4-.2-.5-.3-.7z" class="Y"/><path d="M419.2 103.1s-1.9-4-5.5-4.4-13.3-1.7-11.7-9.1c.9-3.8 2.3-6.7-3.2-8.5s-1.4-12.8 5.5-10.4c6.6 2.2 7.9 7.2 7.4 11.8-.9 6.9 7.5 7.8 9.3 10.7 2 3.1 1.3 10.5 1.3 10.5" class="X"/><g fill="#f4aa82"><path d="M417.136 124.548l1.904-7.873 9.623 2.326-1.904 7.873z"/><circle cx="422.1" cy="125.3" r="5"/></g><ellipse transform="matrix(.4929 -.8701 .8701 .4929 119.4447 427.5551)" cx="426.5" cy="111.3" rx="12.9" ry="10.4" class="d"/><path d="M415.6 111.1l9.4-5.8 2.1 3.6-11.5 7-.3-2.1a6.26 6.26 0 0 1 .3-2.7z" class="X"/><path d="M438.5 110.2c-.2-7-5.4-12.5-11.7-12.3s-11.3 5.9-11.1 12.9v.2l22.9-.6c-.1 0-.1-.1-.1-.2z" class="W"/><path d="M442.8 117.7c-6.3-7.2-14.4.6-14.4.6l-4.4-7.6s10.5-5.6 14.4-.6l4.4 7.6z" class="Z"/><g class="d"><circle cx="418.8" cy="113.7" r="1.7"/><path d="M388.4 166.5l15.5-34.4 10.9 5.3-21.6 38-2-1.2c-3.8-2.1-4.1-5.4-2.8-7.7z"/><path d="M407.1 143.2l3.5 1.9-14.5 25.4z"/></g><g class="Y"><path d="M408.4 154.9l-13.9-7.6 7.7-15.2s4-5.1 10.4-.5c3.7 2.6 3.3 9.1 3.3 9.1l-7.5 14.2z"/><path d="M402.7 151.4l-8.5-4.3 7.8-15.4s3.8-4.1 8.1-1.7c2.7 1.5 0 7 0 7l-7.4 14.4z"/></g><g class="d"><path d="M405.9 187.4l5 1v.1c-.2 1.4-1.6 2.3-3 2.1s-2.3-1.6-2.1-3c.1 0 .1-.1.1-.2z"/><path d="M404.7 194.2L388.8 173l6.4-5.1.8 1.2 10.6 19.8 7.4 5-1.8 1.2c-3.2 2.2-6.1 1.1-7.5-.9z"/></g><use xlink:href="#AL" class="j"/><path d="M332.2 390.7l-.3-.6c0-.1-.1-.2-.1-.3-.1-.1-.1-.3-.2-.4-.1-.2-.2-.4-.4-.6l-.3-.4-2-2-.6-.3-12-6.9-6.2 3.6 12 6.9.6.3.4.4c.1.1.3.2.4.4l1.2 1.2c.1.1.2.3.3.4.1.2.3.4.4.6l.2.4c0 .1.1.2.1.3l.1.2c0 .1.1.1.1.2l.1.2 1.9 4.4 6.2-3.6-1.9-4.4z" class="Y"/><linearGradient id="V" gradientUnits="userSpaceOnUse" x1="278.378" y1="427.841" x2="350.938" y2="301.586"><stop offset="0" stop-color="#51697a" stop-opacity="0"/><stop offset=".9" stop-color="#2a3945"/></linearGradient><path d="M284.6 367.9l-1.6-17.8-7.9-11.1 32.1-19.5 14 8.5-.2 17.9 33.8 30.4-8.5 5-17.4-11.8 2.4-2.3-9.3-9.3-19.1 11.5 28.7 21.6 2 12.3-13.5 7.3.7-14.1-13.3-8.4 2.9-2.8z" fill="url(#V)" class="U"/><use xlink:href="#AL" x="20.9" y="-19.8" class="j"/><path d="M353.1 370.9l-.2-.4c0-.1-.1-.1-.1-.2l-.1-.3c-.1-.1-.1-.3-.2-.4-.1-.2-.2-.4-.4-.6-.1-.1-.2-.3-.3-.4l-.2-.3-.2-.2c0-.1-.1-.1-.2-.2l-1.2-1.2-.8-.4-12-6.9-6.2 3.6 12 6.9.8.4 1 1c0 .1.1.1.2.2l.4.4.2.3.3.4c.1.2.3.4.4.6l.2.4.1.3c0 .1.1.2.1.2l.1.2c0 .1.1.1.1.2l1.9 4.4 6.2-3.6-1.9-4.4z" class="Y"/><g class="V"><path d="M326.9 316.9c-1.4.2-3.1.8-3.7 2.2-.2.8-.3 1.6-.2 2.4l-.2 4.2-.1 2.8c.1-2.2 3.1-2.9 4.9-2.9s4.7.8 5.3 3l.3-6.4-.2 4.6c-.1.7-.1 1.3 0 2l1.5 6.7 2.6 11.5c.9 3.7 2 17.1 2 17.1s1.4-.8 1.3-4.3c-.2-6.9-2.6-19.1-3.3-21.9l-2.6-11.8c-.4-2.2-1.5-10.1-7.6-9.2z"/><circle cx="337.5" cy="362.3" r="3.1"/></g><linearGradient id="W" gradientUnits="userSpaceOnUse" x1="265.935" y1="345.14" x2="295.983" y2="317.078"><stop offset="0" stop-color="#51697a" stop-opacity="0"/><stop offset=".9" stop-color="#2a3945"/></linearGradient><path d="M291.6 346.7l-37.4-22 15-8.7 37.4 21.9z" opacity=".6" fill="url(#W)"/><path d="M325 326.6s-8.8-10.8-9-31.6c0-5.6 3.5-3 3.5-3l4.7-1 4.2 34.4-3.4 1.2z" class="b"/><path d="M322.2 276.5c1.3 4.4 2.9 18.4 2.9 18.4l-10.4 2.5-8-28.2c-.1 0 12.2-4.2 15.5 7.3z" class="W"/><g class="X"><circle cx="281.1" cy="324.6" r="14.6"/><path d="M304.4 351.9h-2.1c-1.4 0-7-3.8-7-3.8 0-1.4-.9-6.2.5-6.2l8.5 4.8a2.65 2.65 0 0 1 2.6 2.6c.1 1.4-1.1 2.6-2.5 2.6z"/></g><path d="M314.6 331.2l-19.5-3.1-13.3-23.1 36.5 9.8c-6.2 5.1-3.7 16.4-3.7 16.4z" class="e"/><g class="V"><path d="M312.4 335.9c-1.4 0-3.2.4-3.9 1.7-.3.8-.5 1.6-.5 2.4l-.7 4.1-.5 2.7c.4-2.2 3.4-2.5 5.2-2.2s4.6 1.4 4.9 3.6l1.1-6.3-.8 4.6c-.2.7-.3 1.3-.3 2l1.9 18.5c.4 3.8-.1 17.2-.1 17.2s1.5-.6 1.8-4.1c.6-6.9-.2-19.2-.5-22.2l-1.1-12.1c-.3-2-.3-9.9-6.5-9.9z"/><path d="M301.1 329.5l-.3-.1h-1.7l-.2.1-7.7 3h.2c.2 0 .3-.1.5-.1.3 0 .6 0 .8.1l.2.1h.2l.3.1 17.2 8.9c.8-.9 6.1 3.7 7.1 3 1.4-.9 0-4.6-1.6-6.4-2.9-3.4-15-8.7-15-8.7z"/><path d="M308.9 345c.2-1.4.8-2.7 1.7-3.8l-17.2-8.9-.3-.1h-.1l-.2-.1c-.1 0-.2-.1-.2-.1h-1.3c-1.1.4-1.8 1.7-1.8 3.6.1 2.6 1.2 5.1 3.1 6.9.3.2.5.4.8.6l15.2 7.9c0-1.9 0-4 .3-6z"/></g><path d="M285.8 321.4h-.1l-.2-.1h-.4l-.2-.1h-1.5c-.1 0-.2.1-.3.1l-9.7 3.7.2-.1c.2-.1.4-.1.6-.1.4 0 .7.1 1.1.2l.6.2 21.6 11.1c2.2-2.7 5.8-4 9.2-3.5.6.1 1.2.3 1.8.5l-22.7-11.9z" class="e"/><circle cx="316.8" cy="382.2" r="3.1" class="V"/><linearGradient id="X" gradientUnits="userSpaceOnUse" x1="302.613" y1="336.626" x2="297.453" y2="345.546"><stop offset="0" stop-color="#51697a" stop-opacity="0"/><stop offset=".9" stop-color="#2a3945" stop-opacity=".5"/></linearGradient><path d="M308.9 345c.2-1.4.8-2.7 1.7-3.8l-17.2-8.9-.3-.1h-.1l-.2-.1c-.1 0-.2-.1-.2-.1h-1.3c-1.1.4-1.8 1.7-1.8 3.6.1 2.6 1.2 5.1 3.1 6.9.3.2.5.4.8.6l15.1 7.8c0-1.9.1-3.9.4-5.9z" fill="url(#X)"/><path d="M311.1 342c2.9-.1 5.3 3.1 5.7 6.1 0 0 3.8 25.4 3.2 34-.1 1.4-3 3.7-4.2 2.3-10.7-11.6-7.1-39.5-7.1-39.5-.2-2.2-.7-2.9 2.4-2.9z" class="V"/><path d="M295.6 341c.3-1.7 1-3.4 2.1-4.7l-21.6-11.1-.3-.1h-.1l-.6-.2h-1.4l-.2.1c-1.4.5-2.3 2.1-2.3 4.6.1 3.3 1.5 6.5 3.9 8.7.3.3.7.5 1.1.7l24.9 12.8s.9.3.1-.1c-4-2-6.3-6.3-5.6-10.7z" class="X"/><linearGradient id="Y" gradientUnits="userSpaceOnUse" x1="321.58" y1="360.64" x2="307.257" y2="365.851"><stop offset="0" stop-color="#51697a" stop-opacity="0"/><stop offset=".9" stop-color="#2a3945" stop-opacity=".5"/></linearGradient><path d="M316.8 348c-.3-2.9-2.8-6.2-5.7-6.1-3.1.1-2.7.7-2.5 2.9 0 0-3.1 24.2 5.1 37-.2 1.7 1 3.2 2.7 3.4s3.2-1 3.4-2.7c0-.1.1-.2.1-.4.7-8.6-3.1-34.1-3.1-34.1z" fill="url(#Y)"/><path d="M271 318.9h11.8v11.8H271zm43.6 12.3l-13.9-2.1-9.2-4.6 6.2-3.6 15.9 2c-.3 2.9 0 5.7 1 8.3z" class="X"/><path d="M308.4 333.1l-25.5-11.6-1.8-3.6 32.7 4.9-15.1.6z" class="e"/><path d="M297.5 300l24.2-14.1-14.7 29.6-24.2 14zm-13.9-20.3l.2-.1h.1l.3-.1c.2 0 .3-.1.5-.1h2.1l.3.1h.1l.3.1h.1l.4.1h.1l.3.1.1.1.3.1.1.1.4.2 24.2-14.1-.3-.2h-.1l-.2-.2-.2-.1-.1-.1-.3-.1h-.1l-.4-.1h-.1l-.2-.1H309c-.2 0-.3 0-.5.1l-.3.1h-.1l-.4.2h-.1l-.4.2-24.2 14 .3-.2h.3z" class="Z"/><path d="M289.3 280.6c1.4.8 2.6 1.8 3.6 3 4.6 4.9 6.6 12.3 4.6 16.3l-14.7 29.5-16.5-17.9L281 282c1.5-2.9 4.8-3.3 8.3-1.4z" class="W"/><g class="Z"><path d="M322.5 282.3c0-2.4-.6-4.8-1.6-6.9-1-2.2-2.4-4.3-4.1-6.1-.9-.9-1.8-1.7-2.9-2.4-.1 0-.4-.2-.5-.3l-24.2 14c2.5 1.5 4.5 3.6 6 6.1 1.7 2.5 2.7 5.4 3 8.4.2 1.6-.1 3.3-.7 4.8l24.2-14c.6-1.1.8-2.3.8-3.6z"/><path d="M295.5 277l-6.2 3.6c2.5 1.5 4.5 3.6 6 6.1 1.7 2.5 2.7 5.4 3 8.4.2 1.6-.1 3.3-.7 4.8l6.1-3.7c.5-3.7-.1-7.5-1.6-11-1.6-3.1-3.9-5.9-6.6-8.2zm18.5-10.7l-6.1 3.7c2.5 1.5 4.5 3.6 6 6.1 1.6 2.5 2.7 5.4 3 8.4.2 1.6-.1 3.3-.7 4.8l5.7-3.3s2.6-4.6-1.2-11.9c-1.7-3-4-5.6-6.7-7.8z"/><path d="M297.5 300l6.2-3.6-13.9 29.1-7 4zm18.1-10.4l6.2-3.6-14 29.1-6.9 4z"/></g><path d="M324.4 331.7l-10.3-1.5s-2.6-9.8 4.1-15.4l11.3 2.6c2.7.5 2.4 6.1 2.1 8.2-.5 3.1-4.5 6.6-7.2 6.1z" class="V"/><path d="M284.4 250.3l8.2 31.2-5.4 4.8-6.8-31.4z" class="b"/><path d="M287.2 286.3l-6.4-3.8-4.9-32.2 7.3 3.7z" class="V"/><path d="M287.6 292.2l.1-.2.1-.1c0-.1 0-.1.1-.2V290c0-.2-.1-.3-.1-.5l-3-13.2-7.4-1.6 3 13c.6 2.5 2.4 4.4 4.8 5.3.8.3 1.7.1 2.3-.5l.1-.3z" class="W"/><path d="M293.7 285v-.9l-3-13.5-5.8 5.8 3.1 13.2c0 .2.1.3.1.5v1.6c0 .1 0 .1-.1.2l-.1.1-.1.2-.2.2v.1l5.6-5.5.2-.2v-.1l.1-.1V285h.2z" class="Z"/><g class="V"><path d="M283.4 255.4s-5.2-.4-6.3-1.9a6.12 6.12 0 0 1-.5-6.5l9.4-29.6 4.5 1.6-7.1 36.4z"/><circle cx="289.7" cy="219.4" r="4.5"/></g><circle cx="305.4" cy="256.1" r="11.5" class="W"/><ellipse transform="matrix(.866 -.5 .5 .866 -87.115 187.9527)" cx="307.2" cy="256.5" rx="18.2" ry="7.8" class="Z"/><g class="V"><path d="M301.588 274.83l.106-5.7 11.298.2-.106 5.7z"/><circle cx="307.2" cy="275" r="5.7"/></g><path d="M318.6 256.6c-.4-1-.9-1.9-1.5-2.8-3-4-8.3-5.7-13-4l-.2.1c-5.9 2.2-8.9 8.8-6.7 14.7s8.8 8.9 14.7 6.7c5.9-2.1 8.9-8.7 6.7-14.7z" class="b"/><g class="X"><path d="M304.9 255.2v-.1c-1.7-.8-3.1-1.9-4.3-3.3-4.9 4-5.6 11.2-1.7 16.1.1.2.3.3.4.5 3.7-3.5 5.6-8.2 5.6-13.2z"/><path d="M304.1 249.8c.5 2.4.8 4.9.8 7.4 0 0 4.1 2 7.6 1.5 3.3-.5 4.1-3.2 4.6-4.9-3-4-8.3-5.6-13-4z"/><path d="M303.9 249.9c-1.2.4-2.2 1-3.2 1.8 1.1 1.4 2.6 2.6 4.3 3.3 0-1.8-.3-3.5-.8-5.2l-.3.1z"/></g><circle cx="302.3" cy="264.1" r="1.8" class="b"/><g class="X"><path d="M303.1 256.2h1.8v9.9h-1.8z"/><path d="M304.9 264.9c.5 1.3 1.6 2.3 3 2.5 2.5.3 4.3-2.3 6.1-2.8 2.3-.7 2.8.3 3.5 0 1-.3 1.6-1.3 1.5-2.3 0 0-.1 9.8-7.4 11.2s-8.6-7.4-8.6-7.4l1.9-1.2z"/></g><path d="M304.5 254.6c4.2-2.4 8.6-3.2 11.8-2.5-3.2-3-7.9-4-12.1-2.6l-.3.1c-1.2.4-2.3 1.1-3.3 1.9-3.5 2.8-5.1 7.4-4.1 11.7 1-3.1 3.9-6.3 8-8.6z" class="Z"/><path d="M289.7 315.1l24.8-14.4-.8 2.3-24.8 14.4z" class="l"/><path d="M281.1 316.6l-1.9 1-3.9-24 1-2.4.6 1.5z" class="k"/><path d="M273.6 307.1l11.4 12.1-.1.2c-1 2.1-3.3 2.5-5.7 1.1-.9-.5-1.7-1.2-2.4-1.9-3.2-3.4-4.6-8.4-3.3-11.2l.1-.3z" fill="#364e5d"/><path d="M273.6 307.1l5.4-3.1 11.4 12.1-5.4 3.1z" class="b"/><path d="M285 319.2l-.1.2c-.1.2-.2.3-.3.5l-.2.3-.1.1c-.1.1-.1.2-.2.2l-.1.1c-.1.1-.2.2-.4.2l5.3-3.1c.1-.1.2-.2.4-.2l.1-.1c.1-.1.2-.1.2-.2l.1-.1.2-.3a.76.76 0 0 0 .2-.4l.1-.2-5.2 3z" class="V"/><linearGradient id="Z" gradientUnits="userSpaceOnUse" x1="326.749" y1="315.839" x2="318.329" y2="332.349"><stop offset=".28" stop-color="#51697a" stop-opacity="0"/><stop offset=".9" stop-color="#2a3945" stop-opacity=".5"/></linearGradient><path d="M314.9 319.3c-1.3 3.5-1.6 7.3-.8 10.9l10.3 1.5c2.7.5 6.7-3.1 7.2-6.2.1-.6.2-1.2.2-1.9-5.5-1.6-11.3-2.7-16.9-4.3z" fill="url(#Z)"/><path d="M326.4 323.2c2.9-.4 5.7 2.5 6.4 5.3 0 0 7 24.7 7.5 33.4.1 1.4-2.4 4-3.9 2.8-12.1-10.2-12-38.4-12-38.4-.5-2.1-1-2.6 2-3.1z" class="V"/><linearGradient id="a" gradientUnits="userSpaceOnUse" x1="339.652" y1="339.674" x2="325.329" y2="347.935"><stop offset="0" stop-color="#51697a" stop-opacity="0"/><stop offset=".9" stop-color="#2a3945" stop-opacity=".5"/></linearGradient><path d="M340.1 360.6c-.9-9.5-7.3-32.2-7.3-32.2-.7-2.9-3.5-5.8-6.4-5.3-3 .5-2.6 1.1-2.1 3.2 0 0 0 25.1 10.2 36.5a3.08 3.08 0 0 0 3.6 2.5c1-.2 1.9-.9 2.3-1.8.3-1 .2-2.1-.3-2.9z" fill="url(#a)"/><linearGradient id="b" gradientUnits="userSpaceOnUse" x1="480.658" y1="402.022" x2="505.198" y2="359.512"><stop offset="0" stop-color="#92aabb" stop-opacity="0"/><stop offset=".58" stop-color="#92aabb"/></linearGradient><path d="M536.3 380.6l-.5-.4-.9-.7c-.5-.4-.9-.8-1.4-1.1l-.9-.7-.5-.4-.8-.6-1.1-.8-1.3-1.1-1.1-.8-.3-.3-.9-.7-3.9-2.7-5.4-3.6-.5-.3-.8-.5-2.7-1.8-1.5-.9-.6-.4-1.3-.8-2-1.1-.5-.3-2-1.1-2.7-1.4h-.1l-2.6-1.3-.1-.1h-.1l-2.4-1.1-.3-.2-2.3-1.1-.4-.2-2.1-.9-.3-.1-2.1-.9h-.1c-.6-.3-1.3-.5-1.9-.8l-.4-.2-1.9-.7h-.1l-.2-.1-1.5-.5-.4-.1-1.7-.5h-.1l-.2-.1-1.4-.2h-.2c-8.4-1.3-16.9.3-24.2 4.6l-6.2 3.6c-10 5.8-9 20.7 1.9 24.9l2.7 1.3 2.8 1.4h.1c.9.5 1.8.9 2.7 1.4l2 1.1.5.3c.7.4 1.3.7 2 1.1l3.5 2.1 1.3.8 8.1 5.4 5.2 3.6 1.1.8 1.3 1 1.1.8 1.3 1.1.9.7 1.4 1.1.9.7c10.3 9 25.3 10.5 37.2 3.6l8.4-4.9c6.9-3.9 9.2-12.7 5.3-19.5-.6-1.1-1.4-2.1-2.3-3l-2.5-2.4z" opacity=".6" fill="url(#b)"/><path d="M444.2 353.7c10.3 0 13.7 5.5 25 12 11.4 6.8 21.6 15.2 30.4 25.1l3.9 4.3 12 1.6c-2.8-.8-8.8 3.2-20.7-2.4l-44.4-31.1-6.2-9.5z" class="V"/><use xlink:href="#AJ" class="a"/><linearGradient id="c" gradientUnits="userSpaceOnUse" x1="452.979" y1="377.562" x2="535.478" y2="347.522"><stop offset=".32" stop-color="#92aabb" stop-opacity="0"/><stop offset="1" stop-color="#92aabb"/></linearGradient><use xlink:href="#AJ" fill="url(#c)"/><defs><path id="d" d="M218.9 243.6L16.4 360.5c-.9.5-1.6 0-1.6-1.2V206.6a3.84 3.84 0 0 1 1.6-3.1l202.5-117c.9-.5 1.6 0 1.6 1.2v152.7c0 1.3-.6 2.5-1.6 3.2z"/><path id="e" d="M364.8 334.8L156.2 455.2c-4.1 2.4-11.3 2.1-16-.7L9.1 378.9c-1.5-.9-1.6-2.1-.4-2.9l218.9-126.3c1.6-.7 3.5-.6 5 .2l131.1 75.7c4.7 2.6 5.3 6.8 1.1 9.2z"/><path id="f" d="M71.8 353.6l-10.1 5.8c-.5.3-.7.9-.4 1.5a.78.78 0 0 0 .4.4l5.1 2.9c.3.2.7.2 1.1 0l10.1-5.8c.5-.3.7-.9.4-1.5a.78.78 0 0 0-.4-.4l-5.1-2.9c-.4-.2-.8-.2-1.1 0z"/><path id="g" d="M114.6 328.9l-10.3 5.9c-.5.3-.6.9-.3 1.4.1.1.2.3.3.3l5.2 3a.91.91 0 0 0 1 0l10.3-5.9c.5-.3.6-.9.3-1.4-.1-.1-.2-.3-.3-.3l-5.2-3c-.4-.2-.7-.2-1 0z"/><path id="h" d="M200.1 279.6l-10.2 5.9c-.5.3-.6 1-.3 1.5l.3.3 5.1 3c.3.2.7.2 1.1 0l10.2-5.9c.5-.3.6-1 .3-1.5l-.3-.3-5.1-3c-.4-.2-.8-.2-1.1 0z"/><path id="i" d="M65.7 368.1l-9.3 5.3c-.5.3-.6 1-.3 1.5l.3.3 9.2 5.3c.3.2.7.2 1.1 0l9.3-5.3c.5-.3.6-1 .3-1.5l-.3-.3-9.2-5.3c-.4-.2-.8-.2-1.1 0z"/><path id="j" d="M122.6 380.7l-9.2 5.3c-.5.3-.7.9-.4 1.5a.78.78 0 0 0 .4.4l9.2 5.3c.3.2.7.2 1.1 0l9.2-5.3c.5-.3.7-.9.4-1.5a.78.78 0 0 0-.4-.4l-9.2-5.3c-.3-.2-.7-.2-1.1 0z"/><path id="k" d="M120.8 411.9l9.2-5.3c.5-.3.7-.9.5-1.4-.1-.2-.3-.4-.5-.5l-9.1-5.2c-.3-.2-.7-.2-1.1 0l-9.2 5.3c-.5.3-.7.9-.5 1.4.1.2.3.4.5.5l9.1 5.3c.4.1.8.1 1.1-.1z"/><path id="l" d="M134.6 403.9l9.4-5.5c.5-.3.6-.9.3-1.4l-.3-.3-9.4-5.4a.91.91 0 0 0-1 0l-9.4 5.5c-.5.3-.6.9-.3 1.4l.3.3 9.4 5.4a.91.91 0 0 0 1 0z"/><path id="m" d="M163.8 356.9l-9.4 5.4c-.5.3-.6.9-.4 1.4a.78.78 0 0 0 .4.4l9.3 5.3a.91.91 0 0 0 1 0l9.4-5.4c.5-.3.6-.9.4-1.4a.78.78 0 0 0-.4-.4l-9.3-5.3a.91.91 0 0 0-1 0z"/><path id="n" d="M205.9 345.6l9.2-5.3c.5-.3.7-.9.5-1.4-.1-.2-.3-.4-.5-.5l-9.1-5.2c-.3-.2-.7-.2-1.1 0l-9.2 5.3c-.5.3-.7.9-.5 1.4.1.2.3.4.5.5l9.1 5.2c.4.2.8.2 1.1 0z"/><path id="o" d="M157.6 345.6l-9.1 5.2c-.6.3-.8 1-.5 1.5.1.2.3.3.5.5l9 5.2c.4.2.8.2 1.1 0l9.1-5.2c.6-.3.8-1 .5-1.5-.1-.2-.3-.3-.5-.5l-9-5.2c-.3-.2-.7-.2-1.1 0z"/><path id="p" d="M100.1 363.9l-9.6 5.5c-.4.3-.6.8-.3 1.2l.3.3 9.5 5.5c.3.2.6.2.9 0l9.6-5.5c.4-.3.6-.8.3-1.2l-.3-.3-9.5-5.5c-.3-.2-.6-.2-.9 0z"/><path id="q" d="M113.9 355.9l-9.5 5.5c-.5.3-.6.8-.3 1.3.1.1.2.3.3.3l9.4 5.4c.3.2.6.2.9 0l9.5-5.5c.5-.3.6-.8.3-1.3-.1-.1-.2-.3-.3-.3l-9.4-5.4c-.3-.1-.6-.1-.9 0z"/><path id="r" d="M142.4 352.5l9.2-5.3c.5-.3.7-.9.5-1.4-.1-.2-.3-.4-.5-.5l-9.1-5.2c-.3-.2-.7-.2-1.1 0l-9.2 5.3c-.5.3-.7.9-.5 1.4.1.2.3.4.5.5l9.1 5.2c.3.2.7.2 1.1 0z"/><path id="s" d="M156.1 344.6l9.2-5.3c.5-.3.7-1 .4-1.5a.78.78 0 0 0-.4-.4l-9.2-5.3c-.3-.2-.7-.2-1.1 0l-9.2 5.3c-.5.3-.7 1-.4 1.5a.78.78 0 0 0 .4.4l9.2 5.3c.4.2.8.2 1.1 0z"/><path id="t" d="M196.5 308.2l-9.2 5.3c-.5.3-.7.9-.4 1.4.1.2.3.3.4.4l9.1 5.3c.3.2.7.2 1.1 0l9.2-5.3c.5-.3.7-.9.4-1.4-.1-.2-.3-.3-.4-.4l-9.1-5.3c-.4-.2-.8-.2-1.1 0z"/><path id="u" d="M79.4 360.1l-9.2 5.3c-.5.3-.7.9-.5 1.4.1.2.3.4.5.5l9.1 5.2c.3.2.7.2 1.1 0l9.2-5.3c.5-.3.7-.9.5-1.4-.1-.2-.3-.4-.5-.5l-9.1-5.3c-.4-.1-.8-.1-1.1.1z"/><path id="v" d="M107 344.2l-9.4 5.4c-.5.3-.6.9-.3 1.4.1.1.2.3.3.3l9.3 5.3a.91.91 0 0 0 1 0l9.4-5.4c.5-.3.6-.9.3-1.4-.1-.1-.2-.3-.3-.3l-9.3-5.3a.91.91 0 0 0-1 0z"/><path id="w" d="M204.4 301l9.3-5.3c.5-.3.6-1 .3-1.5l-.3-.3-9.2-5.3c-.3-.2-.7-.2-1.1 0l-9.3 5.3c-.5.3-.6 1-.3 1.5l.3.3 9.2 5.3c.4.2.8.2 1.1 0z"/><path id="x" d="M232 285.1l16.2-9.4c.5-.3.7-.9.4-1.5a.78.78 0 0 0-.4-.4l-9.1-5.3c-.3-.2-.7-.2-1.1 0l-16.2 9.4c-.5.3-.7.9-.4 1.4.1.2.3.3.4.4l9.1 5.3c.4.3.8.3 1.1.1z"/><path id="y" d="M293.7 312.6l9.2-5.3c.5-.3.7-1 .4-1.5a.78.78 0 0 0-.4-.4l-3.8-2.1c-.3-.2-.7-.2-1.1 0l-9.2 5.3c-.5.3-.7 1-.4 1.5a.78.78 0 0 0 .4.4l3.8 2.1c.4.2.8.2 1.1 0z"/><path id="z" d="M255.1 301.1l19.7-11.4c.5-.3.6-.8.3-1.3-.1-.1-.2-.3-.3-.3l-9.4-5.4a.91.91 0 0 0-1 0L244.8 294c-.5.3-.6.8-.3 1.3.1.1.2.3.3.3l9.4 5.4c.3.2.6.2.9.1z"/><path id="AA" d="M261.2 312.6l26.7-15.4c.4-.3.6-.8.3-1.3-.1-.1-.2-.3-.3-.3l-9.5-5.5c-.3-.2-.6-.2-.9 0l-26.7 15.4c-.4.3-.6.8-.3 1.3l.3.3 9.5 5.5c.2.1.6.1.9 0z"/><path id="AB" d="M266 327.4l9.4-5.4c.5-.3.6-.9.3-1.4l-.3-.3-3.9-2.3a.91.91 0 0 0-1 0l-9.4 5.4c-.5.3-.6.9-.3 1.4l.3.3 3.9 2.3a.91.91 0 0 0 1 0z"/><path id="AC" d="M279.7 319.5l9.7-5.6c.4-.2.5-.7.3-1.1l-.3-.3-4.3-2.4c-.3-.1-.6-.1-.8 0l-9.7 5.6c-.4.2-.5.7-.3 1.1l.3.3 4.3 2.4c.2.1.5.1.8 0z"/><path id="AD" d="M273 315.5l9.4-5.4c.5-.3.6-.9.4-1.4a.78.78 0 0 0-.4-.4l-3.9-2.2a.91.91 0 0 0-1 0l-9.4 5.4c-.5.3-.6 1-.2 1.5l.2.2 3.9 2.2c.3.3.7.3 1 .1z"/><path id="AE" d="M439.7 158.9v1.6c0 .2 0 .4-.1.6s-.1.5-.1.7-.1.4-.1.6-.1.5-.2.7l-.2.6-.2.7c-.1.2-.2.4-.2.6s-.2.5-.3.7l-.3.6c-.1.2-.2.5-.4.7s-.3.5-.4.8l-.1.2c-.2.4-.5.7-.7 1.1l-.1.2-.8 1.1-.3.2c-.2.3-.5.6-.8.9l-.2.3c-.3.4-.6.7-1 1.1l-1 1-.7.6c-.2.2-.4.4-.7.6s-.5.4-.8.6-.5.4-.7.5l-.8.6-.8.5-.9.6-1.1.7-2.2 1.2-.6.3-1.8.8-.6.3-2.4 1-.4.2c-.7.3-1.4.5-2.1.7l-2.1.7-1 .3-1.2.3-1.1.2-1.2.3-1.1.2-1.3.2-1 .2c-.9.2-1.8.3-2.7.4l-.4.1-2.4.3-.9.1c-.5 0-1.1.1-1.5.1l-1 .1-1.6.1h-5.7l-1.4-.1h-1l-1.5-.1c-.3 0-.6 0-.9-.1-.6 0-1.2-.1-1.8-.2l-.5-.1-2.3-.3-.4-.1-2-.3-.8-.1-1.5-.3-2.4-.6-.9-.2c-.5-.1-1-.2-1.5-.4l-.8-.2c-.8-.2-1.5-.5-2.3-.7l-.4-.1-2.6-.9-1-.4-.8-.3-1.1-.5-.7-.3-1.8-.9c-.6-.3-1.2-.6-1.7-1-9.5-5.5-14.2-12.7-14.2-19.9l-.3 110.5c0 7.2 4.7 14.4 14.3 19.9.6.3 1.1.6 1.7 1l1.8.9c.2.1.5.2.7.3s.7.3 1.1.5l1.6.6.2.1 2.5.9.4.1c.8.2 1.5.5 2.3.7l.8.2 1.5.4.9.2 1.6.4.6.1h.2l1.5.3.8.2 2 .3h.4l2.3.3h.6l1.8.2h.8l1.5.1h1l1.4.1h5.8l1.6-.1 1-.1 1.6-.1h.9l2.4-.3h.4c.9-.1 1.8-.3 2.7-.4h.3l.7-.1c.4-.1.8-.2 1.3-.3l1.1-.2 1.2-.3 1-.3 1.2-.3 1-.3 1.2-.4.5-.1.4-.1 2.1-.7.4-.2c.8-.3 1.6-.6 2.4-1l.6-.3c.6-.3 1.2-.5 1.8-.8l.7-.3c.8-.4 1.5-.8 2.2-1.2l.6-.3.5-.3.9-.5c.3-.2.5-.3.8-.5l.8-.6.7-.5.8-.6.7-.5.7-.6 1-1c.3-.3.7-.7 1-1.1l.2-.3c.3-.3.5-.6.8-.9l.3-.3c.3-.3.5-.7.7-1l.1-.2c.3-.4.5-.7.7-1.1l.1-.2a.76.76 0 0 0 .2-.4c.1-.1.1-.2.2-.4s.3-.5.4-.7l.3-.6c.1-.2.2-.5.3-.7l.2-.6c.1-.2.2-.5.2-.7s.1-.4.2-.6.1-.5.2-.7.1-.3.1-.4v-.3c0-.2.1-.5.1-.7s0-.4.1-.6 0-.5 0-.7v-.9l.2-110.6z"/><path id="AF" d="M389.5 165.1c-6.2-3.4-9-12.2-15.3-16.5-4.7-3.2-12.3-3.2-8.5-10.3 2-3.8 13-9.3 13.1-12.5.1-2.9-5.9-6.8-7.8-8.4-3.7-3.4-5.8-6.4-8.7-10.6-2.6-3.7-13.1-10.9-12.7-16 .1-1.8 5.2-5.2 6.2-6.9 9-15-14.1-30.1-11.3-46.7 11 .3 22.5 21.7 25.7 30.5 6.4 17.4 20 32.5 21.6 51.6.4 4.6-1 9.5-.1 13.8.6 2.9 1.9 6.9 2.6 9.6 1.2 4.6 3.9 9.6 2.7 15.1-.9 4-6.1 11.5-4.6 14.2a41.55 41.55 0 0 0 1.8-11.1c.4-9.4.2-15.8 3.2-24.9 4-12.1-1.8-22.8-.4-35.2 1.1-8.5-.1-17.2.7-25.7.9-9.1 4.6-9.5 7.6-18 2.3-6.7-2.3-13.2-2-19.5.3-8.4 4.3-9.8 5.8-18.3 1.2-7-2.3-16.6-3.3-23.3.5 3.5 16.7 14.9 19.7 19.5 4.7 7.4 7.7 15.8 8.8 24.5 2.5 17.5.2 39-7.5 54.5-2.4 4.9-4.4 8.4-4.9 14-.3 3.9.4 7.7-1.1 11.3-1.6 3.9-5.1 6.4-6.7 10.5-1.1 3-1 5.8-1.9 8.8-2.1 6.7-7 12.4-10.5 18.4-1.5 2.7-1.6 5.7-2.9 8.2-2.3 4.4-3.6 3.4-2.6 8.8-4-1.3-10.8-8-11-12.4"/><path id="AG" d="M457.5 181.9l-31.8 28s-2.3.2-3.5-.8c-.9-.8-1.4-2-1.2-3.2 3.6-7.2 8.3-13.7 14-19.3 5.9-6 14.8-7.8 22.5-4.7z"/><path id="AH" d="M450.2 171.8c3.2 1.9 5.4 5.3 5.7 9 .1 3.4-2.2 4.9-5.2 3.3l-31-16.2c-3.2-1.9-5.4-5.3-5.7-9-.1-3.4 2.2-4.9 5.2-3.3l31 16.2z"/><path id="AI" d="M428 287.4c-2.5-2.9-6.6-3.7-10-2-2.5 1.1-3.9 4-3.2 6.6.3 1.2 5.8 17.1 5.8 17.1s8.1-14.8 8.4-16.4c.1-.4.2-.8.2-1.2.2-1.5-.3-3-1.2-4.1z"/><path id="AJ" d="M537.8 361.7l-.5-.4-.9-.7c-.5-.4-.9-.8-1.4-1.1-.3-.2-.6-.5-.9-.7l-.5-.4-.8-.6-1.1-.8-1.3-1-1.1-.8-.3-.3-.9-.7-3.9-2.7-3.9-2.6-2-1.2-.8-.5-2.7-1.8-1.5-.9-.6-.4-1.3-.8-2-1.1-.5-.3-2-1.1-2.7-1.4-.1-.1-2.6-1.3-.1-.1h-.1l-2.4-1.1-.3-.2-2.3-1.1-.4-.2-2.1-.9-.3-.1-2.1-.9h-.1c-.6-.3-1.3-.5-1.9-.8l-.4-.2-1.9-.7h-.1l-.2-.1c-.5-.2-1-.3-1.5-.5l-.4-.1-1.7-.5h-.2l-.2-.1-1.3-.4h-.2c-8.4-1.3-16.9.3-24.2 4.6l-6.2 3.5c-10 5.8-9 20.7 1.9 24.9l2.7 1.3.2.1c.9.4 1.7.9 2.6 1.3l.1.1c.9.5 1.8.9 2.7 1.4l2 1.1.5.3c.7.4 1.3.7 2 1.1l2 1.1 1.5.9c.4.2.8.5 1.3.8l2.7 1.8 1.5.9 3.9 2.6 5.2 3.6 1.1.8 1.3 1 1.1.8 1.3 1.1.9.7 1.4 1.1.9.7c10.3 9 25.3 10.5 37.2 3.6l8.4-4.9c6.8-4 9.1-12.7 5.2-19.6-.6-1.1-1.4-2.1-2.3-3l-2.4-2z"/><path id="AK" d="M416.4 207.9l9.5 5.7c3.4 2.1 5.7 5.7 5 8.1l-15.7-9.5 1.2-4.3z"/><path id="AL" d="M322.1 389.6c1.7 1.1 3.1 2.7 3.9 4.7l1.9 4.4-17.4-10c0-.3-.3-5.6-.3-5.9l11.9 6.8z"/></defs></svg>