<svg width="121" height="94" viewBox="0 0 121 94" fill="none" xmlns="http://www.w3.org/2000/svg">
<g clip-path="url(#clip0_2784_165883)">
<g opacity="0.4">
<path opacity="0.4" d="M10.354 40.7134C6.71852 42.806 6.70887 46.21 10.354 48.3123L85.3017 91.8614C85.9351 92.2244 86.604 92.5216 87.2979 92.7486C90.9785 93.93 94.9763 93.6148 98.4262 91.871L118.05 80.5402C121.686 78.4379 121.705 75.0242 118.05 72.9316L43.0834 29.3729C41.0494 28.3365 38.7991 27.7962 36.5163 27.7962C34.2335 27.7962 31.9832 28.3365 29.9492 29.3729L10.354 40.7134Z" fill="#0D200F"/>
</g>
<path d="M3.39135 13.0661C-0.244172 15.1587 -0.263459 18.5628 3.39135 20.665L78.3004 64.2141C80.3331 65.2489 82.5818 65.7883 84.8627 65.7883C87.1436 65.7883 89.3922 65.2489 91.425 64.2141L111.049 52.8833C114.685 50.781 114.704 47.377 111.049 45.2747L36.14 1.72562C34.1073 0.690835 31.8586 0.151428 29.5777 0.151428C27.2968 0.151428 25.0482 0.690835 23.0154 1.72562L3.39135 13.0661Z" fill="#FAF6E3" stroke="#0D200F" stroke-width="0.154293" stroke-miterlimit="10"/>
<path d="M95.4657 41.157L93.5274 42.2853L93.9807 42.5457L93.7396 42.6903L92.5149 41.9864L92.7656 41.8417L93.2285 42.1117L94.8871 41.1474L94.0675 40.9738L94.3471 40.8099L95.1668 40.9835L95.4657 41.157Z" fill="#0D200F"/>
<path d="M97.0087 41.996C97.2305 42.1214 97.3462 42.2564 97.3655 42.401C97.3848 42.5457 97.298 42.6614 97.1148 42.7675C97.0027 42.8288 96.8826 42.8742 96.758 42.9025C96.5862 42.9357 96.4121 42.955 96.2373 42.9604H95.7262H94.7618L95.7744 43.5486L95.5333 43.6836L94.1929 42.9121L94.434 42.7675H95.3983H95.9962L96.488 42.7096C96.5852 42.686 96.6792 42.6504 96.7676 42.6036C96.8833 42.5361 96.9509 42.4589 96.9509 42.3818C96.9509 42.3046 96.8737 42.2178 96.7483 42.1407C96.5028 42.0133 96.2336 41.9378 95.9576 41.9189L96.2565 41.7357C96.3969 41.766 96.5354 41.8046 96.6712 41.8514C96.7896 41.8843 96.9032 41.933 97.0087 41.996V41.996Z" fill="#0D200F"/>
<path d="M98.0502 43.269L98.513 43.539L97.9827 43.8476L97.5198 43.5776L98.0502 43.269Z" fill="#0D200F"/>
<path d="M96.4011 44.2236L96.9315 43.915L97.3944 44.1851L96.864 44.4936L96.4011 44.2236Z" fill="#0D200F"/>
<path d="M102.804 45.6798C102.746 45.863 102.505 46.0655 102.139 46.2776C101.823 46.4745 101.473 46.6088 101.107 46.673C100.825 46.7158 100.537 46.665 100.287 46.5284C100.056 46.3934 99.9689 46.2294 100.036 46.0559C100.195 45.7922 100.431 45.5835 100.711 45.458C101.024 45.2622 101.371 45.128 101.734 45.0626C102.018 45.0184 102.31 45.0692 102.563 45.2072C102.794 45.3422 102.872 45.4965 102.804 45.6798ZM101.059 46.4416C101.335 46.3714 101.599 46.2574 101.84 46.1041C101.985 46.0253 102.124 45.935 102.254 45.834L100.451 46.0655C100.428 46.0892 100.411 46.1181 100.402 46.1498C100.393 46.1815 100.391 46.215 100.398 46.2473C100.405 46.2796 100.419 46.3098 100.44 46.3353C100.461 46.3607 100.488 46.3807 100.519 46.3934C100.687 46.4742 100.879 46.4914 101.059 46.4416V46.4416ZM101.01 45.6315C100.886 45.6998 100.767 45.7772 100.654 45.863L102.428 45.6315C102.486 45.5158 102.428 45.4194 102.322 45.3422C102.151 45.276 101.962 45.276 101.791 45.3422C101.513 45.4081 101.249 45.5224 101.01 45.6798" fill="#0D200F"/>
<path d="M100.943 44.6286C100.788 44.8919 100.556 45.1008 100.278 45.2265C99.9622 45.4233 99.6119 45.5576 99.2457 45.6219C98.964 45.6646 98.6761 45.6138 98.426 45.4772C98.1849 45.3326 98.0982 45.1783 98.1753 44.995C98.3354 44.735 98.5708 44.5298 98.8503 44.4068C99.1602 44.206 99.5082 44.0714 99.8725 44.0114C100.157 43.9634 100.45 44.0144 100.702 44.1561C100.943 44.2911 101.049 44.4454 100.943 44.6286ZM99.1975 45.3904C99.6236 45.2546 100.024 45.0493 100.384 44.7829L98.59 45.0143C98.5668 45.037 98.5498 45.0652 98.5404 45.0963C98.5311 45.1273 98.5297 45.1602 98.5364 45.192C98.5432 45.2237 98.5578 45.2532 98.5789 45.2778C98.6001 45.3023 98.6271 45.3212 98.6575 45.3325C98.8243 45.4175 99.0165 45.4381 99.1975 45.3904V45.3904ZM99.1396 44.5707C99.0178 44.6419 98.9017 44.7225 98.7925 44.8118L100.567 44.5804C100.581 44.5549 100.59 44.5265 100.592 44.4973C100.595 44.4681 100.591 44.4388 100.581 44.4113C100.57 44.3837 100.555 44.3588 100.534 44.338C100.513 44.3173 100.488 44.3012 100.461 44.2911C100.29 44.2258 100.101 44.2258 99.9304 44.2911C99.6508 44.3568 99.3837 44.4676 99.1396 44.6189" fill="#0D200F"/>
<path d="M106.874 47.7434L104.694 49.0163L104.415 48.8524L106.343 47.7241L104.8 48.1773L104.569 48.0423L105.331 47.1455L103.402 48.2641L103.123 48.1098L105.312 46.8369L105.707 47.0684L104.974 47.9362L106.478 47.5119L106.874 47.7434Z" fill="#0D200F"/>
<path d="M104.8 46.7115C104.8 46.8562 104.714 46.9912 104.501 47.1069C104.298 47.2294 104.063 47.2898 103.826 47.2805C103.567 47.2685 103.316 47.1923 103.093 47.0587L102.746 46.8562L101.869 47.3673L101.57 47.1937L103.759 45.9208L104.405 46.2969C104.627 46.4415 104.8 46.5765 104.8 46.7115ZM103.768 47.0394C103.916 47.037 104.061 47.0007 104.193 46.9333C104.318 46.8562 104.386 46.7694 104.376 46.6826C104.366 46.5958 104.299 46.5187 104.164 46.4319L103.817 46.2294L102.987 46.7115L103.344 46.914C103.472 46.9918 103.619 47.035 103.768 47.0394" fill="#0D200F"/>
<path d="M37.2971 8.5145C36.9995 8.36136 36.6548 8.32689 36.3328 8.41807L36.1592 8.32164L37.326 7.63696L41.1833 9.87421L40.0069 10.5589L39.8333 10.4624C39.9683 10.2792 39.9201 10.0671 39.6693 9.92242L39.2257 9.61383C39.0786 9.53666 38.9177 9.48928 38.7522 9.47438C38.5868 9.45949 38.42 9.47739 38.2614 9.52705L37.9625 9.34382C37.9963 9.30154 38.0195 9.25172 38.0301 9.19859C38.0406 9.14546 38.0383 9.09056 38.0231 9.03855C38.008 8.98653 37.9806 8.93892 37.9432 8.89974C37.9057 8.86056 37.8594 8.83096 37.8082 8.81344L37.2971 8.5145Z" fill="#ED6912"/>
<path d="M39.7176 10.6264C39.9587 10.8096 39.9298 11.0796 39.6212 11.2532L38.4254 11.9475L38.0397 11.7257L38.6376 11.3785L34.7802 9.1413L34.1824 9.48846L33.7966 9.26666L34.9828 8.57234C35.1504 8.48234 35.3359 8.43049 35.526 8.42049C35.716 8.41049 35.9059 8.44258 36.0821 8.51448L39.7176 10.6264Z" fill="#ED6912"/>
<path d="M32.2925 6.51831H32.7168C32.7168 6.91369 32.7168 6.85582 31.6946 6.85582L32.2925 6.51831Z" fill="#ED6912"/>
<path d="M32.7168 5.11039H32.3118L31.7139 4.76323C32.0139 4.71288 32.3203 4.71288 32.6203 4.76323C32.6975 4.85966 32.7168 4.94645 32.7168 5.11039Z" fill="#ED6912"/>
<path d="M35.2045 5.82399C35.2045 5.92042 34.5295 6.11329 34.1437 6.11329H32.6298C29.8139 7.75265 30.1611 7.64657 29.2932 7.64657L30.46 6.54723V6.12293C29.9701 6.14989 29.4786 6.12402 28.9942 6.04578C28.406 6.3833 28.2999 6.49902 27.7985 6.49902L28.2228 5.85291L27.7888 5.20682C28.0264 5.18568 28.2648 5.23605 28.4735 5.35147L28.8785 5.59255C29.1389 5.74684 28.9557 5.53469 30.46 5.53469V5.10074L29.2932 4.0014C29.9489 4.0014 29.9875 4.00141 30.9518 4.53179L32.649 5.49612H34.1437C34.4764 5.5152 34.803 5.59357 35.1081 5.72755C35.1081 5.72755 35.2045 5.8047 35.2045 5.82399Z" fill="#ED6912"/>
<path d="M47.847 14.7633L48.2231 14.9754C48.1093 15.0323 47.9839 15.0619 47.8567 15.0619C47.7295 15.0619 47.604 15.0323 47.4902 14.9754L47.1238 14.7633C47.2359 14.7065 47.3598 14.6769 47.4854 14.6769C47.6111 14.6769 47.7349 14.7065 47.847 14.7633V14.7633Z" fill="#ED6912"/>
<path d="M47.0369 14.7344C47.0369 15.3515 47.0369 15.2165 45.3108 16.2484L44.6068 15.8433L45.0504 15.583L41.9742 13.799L41.521 14.0593L40.7881 13.635C42.7842 12.4778 42.1864 12.7382 43.3918 12.6707C43.7453 12.4806 44.1344 12.3662 44.5345 12.3346C44.9346 12.3031 45.3369 12.3551 45.7158 12.4875C46.2269 12.7864 46.6801 13.0082 46.9501 13.1818C47.9048 13.6929 47.9048 13.8665 47.0369 14.7344ZM45.7833 12.9021C44.9733 12.4393 44.8768 12.5068 43.8547 12.9021L46.6801 14.5319C46.9501 14.2618 47.413 13.8761 46.9984 13.635C46.5837 13.3939 46.1015 13.1047 45.8219 12.9407L45.7833 12.9021ZM44.7418 14.8694C44.819 14.8694 44.819 14.7633 44.7418 14.7247L43.4689 13.9918C43.2953 13.8858 43.0543 13.9918 43.2182 14.1365L44.1825 14.7054C44.5393 14.9176 44.5683 14.9176 44.6647 14.8887L44.7418 14.8694ZM45.9183 15.0237C46.0304 15.0804 46.1543 15.11 46.2799 15.11C46.4056 15.11 46.5295 15.0804 46.6416 15.0237L46.2751 14.8019C46.1613 14.745 46.0359 14.7154 45.9087 14.7154C45.7815 14.7154 45.656 14.745 45.5422 14.8019L45.9183 15.014V15.0237ZM42.9096 13.2782L43.2761 13.4904C43.4786 13.3747 43.4786 13.1914 43.2761 13.0757L42.9 12.8636C42.7071 12.9696 42.7071 13.1625 42.9 13.2782" fill="#ED6912"/>
<path d="M43.3533 12.584L42.9772 12.3718C42.9317 12.358 42.8919 12.3299 42.8636 12.2917C42.8353 12.2535 42.8201 12.2072 42.8201 12.1597C42.8201 12.1121 42.8353 12.0659 42.8636 12.0277C42.8919 11.9895 42.9317 11.9614 42.9772 11.9475L43.3436 12.1597C43.5461 12.285 43.5558 12.4683 43.3533 12.584Z" fill="#ED6912"/>
<path d="M56.9118 39.3538L54.6745 40.646L12.7937 16.4702L15.0309 15.1684L56.9118 39.3538Z" fill="#0D200F"/>
<path d="M92.0132 51.08L89.7856 52.3722L20.1707 12.1886L22.4079 10.8868L92.0132 51.08Z" fill="#0D200F"/>
<path d="M92.8041 55.8052L90.5765 57.1071L16.4871 14.3294L18.7147 13.0372L92.8041 55.8052Z" fill="#0D200F"/>
<path d="M48.5896 17.0681L61.3477 24.4838L63.6042 23.1819L50.8461 15.7662L48.5896 17.0681Z" fill="#0D200F"/>
<g clip-path="url(#clip1_2784_165883)">
<g opacity="0.4">
<path opacity="0.4" d="M102.129 49.2675C101.328 49.7303 102.505 50.4247 103.305 49.9618L103.614 49.7882L102.428 49.0939L102.129 49.2675Z" fill="#0D200F"/>
<path opacity="0.4" d="M111.647 45.0148L110.75 44.494L109.844 45.0148L110.741 45.5451L111.647 45.0148Z" fill="#0D200F"/>
<path opacity="0.4" d="M103.074 46.3166C102.795 46.4588 102.486 46.533 102.172 46.533C101.859 46.533 101.55 46.4588 101.271 46.3166L99.9014 47.1073L107.047 51.2636L108.416 50.4728C107.915 50.1739 107.915 49.711 108.416 49.4217L109.776 48.6406C111.338 47.7438 111.242 46.2876 109.776 45.4776C108.919 45.0786 107.982 44.8824 107.037 44.9041C106.092 44.9258 105.165 45.165 104.328 45.603L103.074 46.3166Z" fill="#0D200F"/>
</g>
<path d="M115.35 39.711L114.453 39.1902L113.547 39.711L114.443 40.2317L115.35 39.711Z" fill="#ED6912" stroke="#0D200F" stroke-width="0.154293" stroke-linecap="round" stroke-linejoin="round"/>
<path d="M113.547 39.711V41.2829L114.443 41.8036V40.2317L113.547 39.711Z" fill="#ED6912" stroke="#0D200F" stroke-width="0.154293" stroke-linecap="round" stroke-linejoin="round"/>
<path d="M114.443 40.2317V41.8036L115.35 41.2829V39.711L114.443 40.2317Z" fill="#ED6912" stroke="#0D200F" stroke-width="0.154293" stroke-linecap="round" stroke-linejoin="round"/>
<path d="M114.617 43.3175V41.7457C114.587 42.0883 114.465 42.4164 114.265 42.6962C114.065 42.976 113.794 43.1972 113.479 43.3368V44.9087C113.794 44.769 114.065 44.5478 114.265 44.2681C114.465 43.9883 114.587 43.6601 114.617 43.3175V43.3175Z" fill="#ED6912"/>
<path d="M113.47 43.3368V44.9087C113.784 44.769 114.055 44.5478 114.255 44.2681C114.455 43.9883 114.577 43.6601 114.608 43.3175V41.7457C114.577 42.0883 114.455 42.4164 114.255 42.6962C114.055 42.976 113.784 43.1972 113.47 43.3368Z" fill="#ED6912" stroke="#0D200F" stroke-width="0.154293" stroke-linecap="round" stroke-linejoin="round"/>
<path d="M114.617 43.3175V41.7457C114.587 42.0883 114.465 42.4164 114.265 42.6962C114.065 42.976 113.794 43.1972 113.479 43.3368V44.9087C113.794 44.769 114.065 44.5478 114.265 44.2681C114.465 43.9883 114.587 43.6601 114.617 43.3175V43.3175Z" stroke="#0D200F" stroke-width="0.154293" stroke-linecap="round" stroke-linejoin="round"/>
<path d="M112.12 44.118V45.6898L113.48 44.9087L113.47 43.3369L112.12 44.118Z" fill="#ED6912" stroke="#0D200F" stroke-width="0.154293" stroke-linecap="round" stroke-linejoin="round"/>
<path d="M111.744 44.6387V46.2106C111.755 46.0985 111.796 45.9915 111.862 45.9002C111.928 45.8088 112.017 45.7363 112.12 45.6898V44.118C112.017 44.1644 111.928 44.237 111.862 44.3283C111.796 44.4197 111.755 44.5267 111.744 44.6387Z" fill="#ED6912"/>
<path d="M111.744 44.6387V46.2106C111.755 46.0985 111.796 45.9915 111.862 45.9002C111.928 45.8088 112.017 45.7363 112.12 45.6898V44.118C112.017 44.1644 111.928 44.237 111.862 44.3283C111.796 44.4197 111.755 44.5267 111.744 44.6387Z" fill="#ED6912" stroke="#0D200F" stroke-width="0.154293" stroke-linecap="round" stroke-linejoin="round"/>
<path d="M111.744 44.6387V46.2106C111.755 46.0985 111.796 45.9915 111.862 45.9002C111.928 45.8088 112.017 45.7363 112.12 45.6898V44.118C112.017 44.1644 111.928 44.237 111.862 44.3283C111.796 44.4197 111.755 44.5267 111.744 44.6387Z" stroke="#0D200F" stroke-width="0.154293" stroke-linecap="round" stroke-linejoin="round"/>
<path d="M106.777 41.0514C106.496 41.1937 106.186 41.2679 105.871 41.2679C105.556 41.2679 105.245 41.1937 104.964 41.0514L103.605 41.8421L110.75 45.9888L112.11 45.198C112.001 45.1612 111.907 45.0912 111.84 44.9978C111.772 44.9043 111.736 44.7923 111.736 44.6773C111.736 44.5623 111.772 44.4502 111.84 44.3568C111.907 44.2634 112.001 44.1933 112.11 44.1565L113.46 43.3754C115.032 42.469 114.936 41.0225 113.46 40.2124C112.605 39.8135 111.669 39.6173 110.726 39.6391C109.783 39.6608 108.857 39.8999 108.021 40.3378L106.777 41.0514Z" fill="#ED6912" stroke="#0D200F" stroke-width="0.154293" stroke-linecap="round" stroke-linejoin="round"/>
<path d="M103.605 41.8036V43.3754L110.75 47.5221V45.9502L103.605 41.8036Z" fill="#ED6912" stroke="#0D200F" stroke-width="0.154293" stroke-linecap="round" stroke-linejoin="round"/>
<path d="M110.75 45.9502V47.5221L112.12 46.741L112.11 45.1691L110.75 45.9502Z" fill="#ED6912" stroke="#0D200F" stroke-width="0.154293" stroke-linecap="round" stroke-linejoin="round"/>
<path d="M105.572 44.4459C105.804 44.6614 106.109 44.7812 106.425 44.7812C106.742 44.7812 107.047 44.6614 107.279 44.4459V46.0177C107.045 46.2339 106.739 46.354 106.42 46.354C106.102 46.354 105.796 46.2339 105.562 46.0177C105.528 45.4461 105.528 44.8729 105.562 44.3012C105.549 44.3491 105.552 44.4001 105.572 44.4459Z" fill="#ED6912" stroke="#0D200F" stroke-width="0.154293" stroke-linecap="round" stroke-linejoin="round"/>
<path d="M105.832 43.9444C104.868 44.6001 106.681 45.1209 107.317 44.4555L106.141 43.7708L105.832 43.9444Z" fill="#ED6912" stroke="#0D200F" stroke-width="0.154293" stroke-linecap="round" stroke-linejoin="round"/>
</g>
</g>
<defs>
<clipPath id="clip0_2784_165883">
<rect width="120.175" height="93.3567" fill="white" transform="translate(0.575684 0.0765991)"/>
</clipPath>
<clipPath id="clip1_2784_165883">
<rect width="15.5257" height="12.1505" fill="white" transform="translate(99.9016 39.1131)"/>
</clipPath>
</defs>
</svg>